<svg width="18" height="18" viewBox="0 0 18 18" fill="none" xmlns="http://www.w3.org/2000/svg">
<path d="M8.85278 0.125854C4.16928 0.125854 0.352783 3.94235 0.352783 8.62585C0.352783 13.3094 4.16928 17.1259 8.85278 17.1259C13.5363 17.1259 17.3528 13.3094 17.3528 8.62585C17.3528 3.94235 13.5363 0.125854 8.85278 0.125854ZM11.2243 9.07635L8.22378 12.0769C8.09628 12.2044 7.93478 12.2639 7.77328 12.2639C7.61178 12.2639 7.45028 12.2044 7.32278 12.0769C7.07628 11.8304 7.07628 11.4224 7.32278 11.1759L9.87278 8.62585L7.32278 6.07585C7.07628 5.82935 7.07628 5.42135 7.32278 5.17485C7.56928 4.92835 7.97728 4.92835 8.22378 5.17485L11.2243 8.17535C11.4793 8.42185 11.4793 8.82985 11.2243 9.07635Z" fill="#006AAE"/>
</svg>
