<svg width="94" height="95" viewBox="0 0 94 95" fill="none" xmlns="http://www.w3.org/2000/svg">
<path opacity="0.1" d="M75.2468 29.4818C80.2993 34.5343 82.2726 41.8984 80.4232 48.8003L76.5472 63.2659C74.6978 70.1677 69.3069 75.5587 62.405 77.408L47.9394 81.2841C41.0376 83.1334 33.6734 81.1602 28.6209 76.1077L18.0314 65.5181C12.9789 60.4656 11.0056 53.1015 12.855 46.1996L16.731 31.734C18.5804 24.8322 23.9713 19.4412 30.8732 17.5919L45.3388 13.7158C52.2406 11.8665 59.6048 13.8397 64.6573 18.8922L75.2468 29.4818Z" fill="#F1315F"/>
<path d="M38.3193 37.0837C38.3193 37.284 38.2191 37.4843 38.0188 37.5845C37.8185 37.6846 37.5681 37.6846 37.4179 37.5344C36.8169 36.9335 36.216 36.3826 35.6651 35.7817C35.4648 35.5814 35.5149 35.2809 35.7152 35.0806C35.9155 34.8803 36.216 34.7801 36.4664 35.0305C37.0673 35.5814 37.6682 36.1823 38.2191 36.7832C38.2692 36.8333 38.3193 36.9835 38.3193 37.0837Z" fill="#F1315F"/>
<path d="M53.8936 37.6847C53.6933 37.6847 53.493 37.5846 53.3928 37.3843C53.2926 37.184 53.2926 36.9336 53.4429 36.7833C54.0438 36.1824 54.5947 35.5815 55.1956 35.0306C55.3959 34.8303 55.6964 34.8804 55.8967 35.0807C56.1471 35.281 56.1972 35.5815 55.9468 35.8318C55.3959 36.4328 54.795 37.0337 54.1941 37.5846C54.144 37.6347 54.0438 37.6847 53.8936 37.6847Z" fill="#F1315F"/>
<path d="M38.3192 53.259C38.3192 53.4593 38.2191 53.5595 38.1189 53.7097C37.6181 54.2105 37.1174 54.7613 36.5665 55.2621C36.266 55.5626 35.9656 55.5626 35.7152 55.3122C35.4648 55.0618 35.4648 54.7613 35.7652 54.4609C36.266 53.9601 36.7668 53.4092 37.3177 52.9084C37.518 52.7081 37.7183 52.6581 37.9687 52.7582C38.169 52.8584 38.2692 53.0086 38.3192 53.259Z" fill="#F1315F"/>
<path d="M46.3818 32.5767C46.3818 32.9272 46.3818 33.3279 46.3818 33.6784C46.3818 34.029 46.1314 34.2793 45.8309 34.2793C45.4804 34.2793 45.23 34.029 45.23 33.6784C45.23 32.9773 45.23 32.2261 45.23 31.525C45.2801 31.1244 45.4804 30.874 45.8309 30.874C46.1815 30.874 46.3818 31.1244 46.3818 31.525C46.4319 31.8756 46.3818 32.2261 46.3818 32.5767Z" fill="#F1315F"/>
<path d="M33.2112 45.7473C32.8606 45.7473 32.5101 45.7473 32.1595 45.7473C31.809 45.7473 31.5586 45.4969 31.5586 45.1964C31.5586 44.8459 31.809 44.5955 32.1595 44.5955C32.8606 44.5955 33.6118 44.5955 34.3129 44.5955C34.7135 44.5955 34.9639 44.8459 34.9639 45.1463C34.9639 45.4969 34.7135 45.6972 34.3129 45.6972C33.9623 45.7473 33.5617 45.7473 33.2112 45.7473Z" fill="#F1315F"/>
<path d="M58.4004 45.7472C58.0499 45.7472 57.6492 45.7472 57.2987 45.7472C56.9481 45.7472 56.6978 45.4968 56.6978 45.1964C56.6978 44.8959 56.9481 44.6455 57.2987 44.6455C58.0499 44.6455 58.801 44.6455 59.5522 44.6455C59.9028 44.6455 60.1532 44.8959 60.1532 45.2464C60.1532 45.5469 59.9028 45.7973 59.5522 45.7973C59.1516 45.7472 58.801 45.7472 58.4004 45.7472Z" fill="#F1315F"/>
<path d="M53.8934 52.7081C54.0937 52.7081 54.2439 52.8083 54.3941 52.9585C54.8949 53.4593 55.3957 53.9601 55.8965 54.4609C56.197 54.7613 56.197 55.1119 55.9466 55.3623C55.6962 55.6127 55.3957 55.5626 55.0952 55.3122C54.5945 54.8114 54.0937 54.3106 53.5929 53.8099C53.3926 53.6095 53.3425 53.4092 53.4427 53.1588C53.4927 52.8083 53.693 52.7582 53.8934 52.7081Z" fill="#F1315F"/>
<path d="M55.3959 43.3935C54.2942 38.0852 49.5367 34.7801 44.2284 35.5813C39.7715 36.2824 36.2159 40.2386 36.1157 44.7456C36.0156 48.6517 37.7183 51.6064 41.0234 53.6095C41.1737 53.7096 41.2237 53.8098 41.2237 54.0101C41.2237 54.9115 41.2237 55.8129 41.2237 56.7143C41.2237 57.6157 41.2237 58.5672 41.2237 59.4686C41.2237 60.1197 41.7245 60.5704 42.3755 60.6204C42.6259 60.6204 42.9264 60.6204 43.1768 60.6204C43.4272 60.6204 43.5273 60.6705 43.5273 60.9209C43.4773 61.1713 43.5273 61.4718 43.5273 61.7222C43.5273 62.3732 44.0281 62.874 44.6291 62.874C45.3802 62.874 46.1815 62.874 46.9327 62.874C47.5336 62.874 48.0344 62.3732 48.0344 61.7722C48.0344 61.5219 48.0344 61.2214 48.0344 60.971C47.9843 60.6705 48.0844 60.5203 48.3849 60.5704C48.5852 60.6204 48.8356 60.5704 49.0359 60.5704C49.8372 60.5704 50.338 60.1197 50.338 59.2683C50.338 57.5156 50.338 55.8129 50.338 54.0602C50.338 53.7597 50.4381 53.6095 50.6885 53.4593C54.2942 51.5062 56.1971 47.2996 55.3959 43.3935ZM46.1314 61.7722C46.0312 61.7722 45.9812 61.7722 45.881 61.7722C45.5805 61.7722 45.23 61.7722 44.9295 61.7722C44.7292 61.7722 44.7292 61.7222 44.7292 61.5719C44.6791 60.6204 44.6791 60.6204 45.5805 60.6204C45.9812 60.6204 46.3818 60.6204 46.7824 60.6204C46.9827 60.6204 46.9827 60.6705 46.9827 60.8208C47.0328 61.7722 47.0328 61.7722 46.1314 61.7722ZM48.435 59.4686C47.5837 59.4686 46.6823 59.4686 45.8309 59.4686C44.7793 59.4686 43.7276 59.4686 42.676 59.4686C42.4256 59.4686 42.3755 59.4186 42.3755 59.1682C42.3755 58.3168 42.3755 58.3168 43.2269 58.3168C45.1298 58.3168 47.0328 58.3168 48.9358 58.3168C49.1862 58.3168 49.2863 58.3669 49.2863 58.6674C49.2363 59.4686 49.2863 59.4686 48.435 59.4686ZM42.3755 56.8646C42.3755 56.0132 42.3755 56.0132 43.2269 56.0132C44.0782 56.0132 44.9796 56.0132 45.8309 56.0132C46.8826 56.0132 47.9342 56.0132 48.9859 56.0132C49.2362 56.0132 49.2362 56.0633 49.2362 56.3137C49.2362 57.165 49.2362 57.165 48.3849 57.165C46.4819 57.165 44.579 57.165 42.676 57.165C42.4256 57.2151 42.3755 57.115 42.3755 56.8646ZM49.9373 52.658C49.4366 52.9084 49.1862 53.2589 49.2362 53.8098C49.2863 54.0602 49.2362 54.3607 49.2362 54.6111C49.2362 54.8114 49.1862 54.8614 48.9859 54.8614C48.1846 54.8614 47.3834 54.8614 46.5821 54.8614C46.4319 54.8614 46.3317 54.8114 46.3317 54.6111C46.3317 53.8599 46.3317 53.1087 46.3317 52.4076C46.3317 52.2574 46.3818 52.1572 46.4819 52.0571C46.9326 51.6064 47.3333 51.2057 47.784 50.755C48.0845 50.4546 48.1345 50.104 47.8841 49.8536C47.6337 49.6032 47.2832 49.6533 46.9827 49.9538C46.6322 50.3043 46.2816 50.6048 45.9812 50.9553C45.8309 51.1056 45.7308 51.1557 45.5805 50.9553C45.2801 50.6048 44.9295 50.3043 44.6291 50.0039C44.2785 49.6533 43.928 49.6032 43.6776 49.8536C43.3771 50.104 43.4272 50.4546 43.8278 50.8552C44.2284 51.2558 44.6291 51.6564 45.0297 52.0571C45.1298 52.1572 45.1799 52.2574 45.1799 52.4076C45.1799 53.1588 45.1799 53.8599 45.1799 54.6111C45.1799 54.8114 45.1298 54.8614 44.9295 54.8614C44.5289 54.8614 44.1283 54.8614 43.7276 54.8614C43.327 54.8614 42.9264 54.8614 42.5258 54.8614C42.3255 54.8614 42.2754 54.8114 42.2754 54.6111C42.2754 54.2104 42.2754 53.8599 42.2754 53.4593C42.2754 53.1087 42.1251 52.9084 41.8247 52.7582C39.3208 51.406 37.7683 49.3528 37.2675 46.5485C36.4663 42.1416 39.4209 37.7347 43.7777 36.7331C48.8356 35.7316 53.543 38.9366 54.3442 43.9444C54.845 47.3998 53.0923 51.0054 49.9373 52.658Z" fill="#F1315F"/>
</svg>
