<svg width="94" height="95" viewBox="0 0 94 95" fill="none" xmlns="http://www.w3.org/2000/svg">
<path opacity="0.1" d="M75.3157 29.4818C80.3682 34.5343 82.3414 41.8984 80.4921 48.8003L76.616 63.2659C74.7667 70.1677 69.3757 75.5587 62.4739 77.408L48.0083 81.2841C41.1064 83.1334 33.7423 81.1602 28.6898 76.1077L18.1002 65.5181C13.0477 60.4656 11.0745 53.1015 12.9238 46.1996L16.7999 31.734C18.6492 24.8322 24.0402 19.4412 30.942 17.5919L45.4076 13.7158C52.3095 11.8665 59.6736 13.8397 64.7261 18.8922L75.3157 29.4818Z" fill="#E29C04"/>
<path d="M45.512 62.8739C45.2623 62.7241 45.1624 62.5244 45.2123 62.2747C45.2123 61.6754 45.2123 61.0761 45.2123 60.4768C45.2123 60.2271 45.1124 60.0273 44.9626 59.8275C43.764 58.4292 42.5654 56.9809 41.3668 55.5326C40.8674 54.9333 40.8674 54.1343 41.267 53.535C41.7164 52.9357 42.4655 52.7359 43.1647 53.0356C43.4644 53.1354 43.6641 53.3352 43.8639 53.5849C44.2135 54.0344 44.613 54.4838 45.0125 54.9333C45.1124 54.8334 45.0625 54.7335 45.0625 54.6337C45.0625 53.2853 45.0625 51.8869 45.0625 50.5385C45.0625 50.2888 45.0125 50.1889 44.8128 50.089C42.7153 49.0902 41.7664 46.4433 42.7153 44.3458C42.8151 44.0961 42.965 43.8963 43.2646 43.9463C43.6142 44.0462 43.7141 44.2959 43.5643 44.6954C43.1647 45.6443 43.1647 46.5931 43.5643 47.4921C43.8639 48.1913 44.3633 48.7406 45.0625 49.1401C45.0625 48.391 45.0625 47.6919 45.0625 46.9927C45.0625 46.7929 45.0625 46.5931 45.1124 46.3934C45.3122 45.6443 46.0613 45.0949 46.8604 45.1948C47.6095 45.2947 48.2088 45.9439 48.2587 46.693C48.2587 47.4921 48.2587 48.3411 48.2587 49.1401C48.3586 49.1901 48.4085 49.1401 48.4585 49.0902C49.757 48.391 50.4062 46.8928 50.1065 45.3446C49.8069 43.9463 48.5584 42.7976 47.1101 42.6478C46.4109 42.5479 45.8116 42.6977 45.1624 42.9974C44.8128 43.1472 44.613 43.0973 44.4632 42.8476C44.3134 42.5479 44.4133 42.3482 44.7628 42.1983C46.9103 41.0996 49.6071 42.0485 50.7058 44.2459C51.7546 46.4433 50.8057 49.1401 48.5584 50.139C48.3087 50.2388 48.2587 50.3887 48.2587 50.6384C48.2587 51.3376 48.2587 51.3376 49.0078 51.3376C50.0067 51.3376 51.0055 51.3376 51.9544 51.3376C53.4027 51.3376 54.3515 52.2864 54.3515 53.7347C54.3515 54.0344 54.3515 54.334 54.3515 54.6836C54.3515 54.9833 54.1518 55.183 53.8521 55.183C53.6024 55.183 53.4027 54.9833 53.4027 54.6836C53.4027 54.334 53.4027 53.9345 53.4027 53.5849C53.4027 52.9856 53.0531 52.5361 52.5037 52.3364C52.3039 52.2864 52.1541 52.2864 52.2041 52.5361C52.2041 52.7858 52.2041 53.0356 52.2041 53.2353C52.2041 53.5849 52.0043 53.7347 51.7047 53.7347C51.405 53.7347 51.2552 53.5849 51.2552 53.2353C51.2552 52.9856 51.2552 52.7359 51.2552 52.4862C51.2552 52.2864 51.2052 52.1866 51.0055 52.2365C50.7558 52.2864 50.4062 52.1366 50.2564 52.2864C50.1565 52.4363 50.2064 52.7858 50.2064 53.0356C50.2064 53.1354 50.2064 53.2353 50.2064 53.3352C50.1565 53.5849 50.0067 53.7347 49.757 53.7347C49.5072 53.7347 49.3075 53.5849 49.3075 53.3352C49.3075 53.0356 49.3075 52.7858 49.3075 52.4862C49.3075 52.3364 49.2575 52.2365 49.1077 52.2365C48.858 52.2864 48.5084 52.1366 48.3087 52.2864C48.1588 52.4363 48.2587 52.7858 48.2587 53.0855C48.2587 53.535 48.1588 53.7347 47.8592 53.7347C47.5096 53.7847 47.3098 53.5849 47.3098 53.2353C47.3098 52.3364 47.3098 51.4374 47.3098 50.5385C47.3098 49.29 47.3098 48.0914 47.3098 46.8429C47.3098 46.2935 46.8104 45.9439 46.361 46.1936C46.1113 46.3434 46.0114 46.5931 46.0114 46.8928C46.0114 47.9915 46.0114 49.0902 46.0114 50.1889C46.0114 52.1366 46.0114 54.0843 46.0114 56.032C46.0114 56.2817 45.9614 56.5314 45.7117 56.6313C45.4121 56.7312 45.2623 56.5814 45.0625 56.3816C44.4133 55.5825 43.764 54.7835 43.1148 53.9844C42.8651 53.6848 42.5654 53.6348 42.2658 53.7847C42.0161 53.9345 41.8663 54.2341 41.9162 54.5338C41.9661 54.6836 42.066 54.8334 42.1659 54.9333C43.4144 56.4315 44.663 57.8798 45.9115 59.3781C46.0613 59.5778 46.1612 59.7776 46.1612 59.9774C46.1612 60.7265 46.1612 61.4257 46.1612 62.1748C46.1612 62.4245 46.0613 62.6242 45.8615 62.7741C45.7117 62.8739 45.6118 62.8739 45.512 62.8739Z" fill="#E29C04"/>
<path d="M52.3039 62.874C52.0542 62.7742 51.9543 62.5744 51.9543 62.2748C51.9543 61.6755 51.9543 61.0762 51.9543 60.4769C51.9543 60.2771 52.0043 60.0773 52.1541 59.9775C52.9532 59.2783 53.3527 58.4293 53.4026 57.3805C53.4026 57.0309 53.6024 56.8312 53.902 56.8312C54.2017 56.8312 54.3515 57.0809 54.3515 57.4305C54.3016 58.6291 53.902 59.6279 53.053 60.4269C52.9032 60.5768 52.8533 60.6766 52.8533 60.8764C52.8533 61.3259 52.8533 61.8253 52.8533 62.2748C52.8533 62.5245 52.7534 62.7242 52.5536 62.874C52.5037 62.874 52.4038 62.874 52.3039 62.874Z" fill="#E29C04"/>
<path d="M60.6442 44.5956C59.8451 44.3958 59.096 44.7953 58.7464 45.5445C58.6965 45.6943 58.5966 45.7442 58.4468 45.7442C57.6977 45.7442 56.9486 45.7442 56.1994 45.7442C55.4503 45.7442 54.7012 45.7442 53.9021 45.7442C53.7523 45.7442 53.6524 45.7442 53.6524 45.4945C53.5026 44.246 53.1031 43.1473 52.354 42.1485C52.2541 41.9986 52.2541 41.9487 52.4039 41.7989C52.8034 41.3993 53.2529 40.9998 53.6524 40.5503C53.7523 40.4505 53.8522 40.4005 54.052 40.4005C54.6513 40.4005 55.3005 40.4005 55.8998 40.4005C56.0996 40.4005 56.1994 40.4505 56.2993 40.6502C56.7987 41.9487 58.4468 42.2983 59.4955 41.3494C60.0948 40.8001 60.2447 39.9511 59.995 39.152C59.6953 38.4029 58.9961 37.9035 58.1471 37.9035C57.398 37.9035 56.6489 38.4029 56.3493 39.152C56.2494 39.3518 56.1495 39.4516 55.9497 39.4516C55.4004 39.4516 54.901 39.4516 54.3516 39.4516C54.2018 39.4516 54.1019 39.4017 54.1019 39.2519C54.1019 38.5028 54.1019 37.7536 54.1019 37.0545C54.1019 36.9046 54.1518 36.8547 54.3017 36.7548C55.0508 36.4052 55.4004 35.6561 55.2506 34.907C55.0508 34.1079 54.4515 33.5586 53.6524 33.5586C52.8534 33.5586 52.2041 34.058 52.0543 34.8571C51.8546 35.6561 52.2541 36.4052 53.0032 36.7049C53.153 36.7548 53.203 36.8547 53.203 37.0045C53.203 37.8036 53.203 38.6526 53.203 39.4516C53.203 39.6015 53.153 39.7013 53.0531 39.8512C52.6536 40.2507 52.2541 40.6003 51.9045 40.9998C51.7547 41.1996 51.6548 41.1496 51.505 40.9998C50.4063 40.001 49.1078 39.4017 47.6096 39.2519C47.3599 39.2519 47.3599 39.1021 47.3599 38.9522C47.3599 37.6538 47.3599 36.3054 47.3599 35.0069C47.3599 34.8071 47.4098 34.7072 47.6096 34.6573C48.8581 34.2078 49.2576 32.7096 48.5085 31.6608C48.0091 31.0116 47.1601 30.7119 46.361 30.9617C45.562 31.2114 45.0126 31.9105 44.9627 32.8095C44.713 33.6085 45.2623 34.4076 46.0114 34.7072C46.1613 34.7572 46.2612 34.8071 46.2612 35.0069C46.2612 36.3553 46.2612 37.7536 46.2612 39.1021C46.2612 39.2519 46.2112 39.3518 46.0614 39.3518C44.5632 39.5016 43.2647 40.1009 42.116 41.0997C41.9662 41.2495 41.8663 41.2495 41.7165 41.0997C41.3669 40.7002 40.9674 40.3506 40.5679 39.9511C40.468 39.8512 40.418 39.7513 40.418 39.5515C40.418 38.7525 40.418 37.9035 40.418 37.1044C40.418 36.9546 40.468 36.8547 40.6178 36.8048C41.3669 36.4552 41.7165 35.7061 41.5667 34.907C41.3669 34.1579 40.7676 33.6585 39.9686 33.6585C39.1695 33.6585 38.5203 34.1579 38.3705 34.907C38.1707 35.7061 38.5702 36.4552 39.3193 36.8048C39.4692 36.9046 39.5191 36.9546 39.5191 37.1544C39.5191 37.8535 39.5191 38.5527 39.5191 39.2519C39.5191 39.4516 39.4692 39.5515 39.2694 39.5515C38.77 39.5515 38.2206 39.5515 37.7212 39.5515C37.5215 39.5515 37.4216 39.5016 37.3217 39.3018C37.022 38.5527 36.4727 38.1532 35.6736 38.0533C34.9245 38.0033 34.3252 38.2531 33.8758 38.9023C33.4263 39.6015 33.3763 40.3006 33.7759 41.0498C34.1754 41.7489 34.8246 42.0486 35.5738 42.0486C36.3728 41.9986 36.9721 41.5492 37.2718 40.8001C37.3716 40.6003 37.4715 40.5503 37.6713 40.5503C38.2706 40.5503 38.8699 40.5503 39.4692 40.5503C39.6689 40.5503 39.8187 40.6003 39.9186 40.7501C40.3182 41.1496 40.6677 41.5492 41.0673 41.8988C41.2171 42.0486 41.2171 42.1485 41.1172 42.2983C40.418 43.2971 39.9686 44.3958 39.8687 45.5944C39.8687 45.8441 39.7688 45.8441 39.569 45.8441C38.0708 45.8441 36.5726 45.8441 35.1243 45.8441C34.9245 45.8441 34.8246 45.7942 34.7747 45.5944C34.3752 44.7953 33.5262 44.4458 32.6772 44.7454C31.8781 45.045 31.4786 45.894 31.6783 46.743C31.8781 47.4422 32.3775 47.8917 33.0767 47.9416C33.8258 47.8917 34.4751 47.5421 34.7747 46.8929C34.8246 46.743 34.8746 46.6432 35.0743 46.6432C36.5726 46.6432 38.1208 46.6432 39.619 46.6432C39.8187 46.6432 39.8187 46.6931 39.8687 46.8929C39.9686 48.2413 40.468 49.3899 41.317 50.4387C41.7165 50.9381 42.166 51.3876 42.7153 51.7871C42.965 51.9369 43.1648 51.887 43.3646 51.6872C43.5144 51.4874 43.5144 51.2377 43.3146 51.038C43.2647 50.988 43.1648 50.9381 43.1149 50.8882C41.317 49.3899 40.5179 47.5421 40.9175 45.1949C41.5667 41.3494 45.7118 39.152 49.2077 40.7501C52.5537 42.2983 53.7024 46.3435 51.7047 49.4399C51.6548 49.5397 51.6049 49.5897 51.5549 49.6896C51.505 49.9393 51.6049 50.139 51.8046 50.2389C52.0543 50.3887 52.2541 50.2889 52.4039 50.0392C53.0531 49.0903 53.4527 47.9916 53.5526 46.8429C53.5526 46.6432 53.6025 46.5932 53.8023 46.5932C55.3005 46.5932 56.7987 46.5932 58.3469 46.5932C58.4967 46.5932 58.5966 46.6432 58.6965 46.793C59.0461 47.5421 59.7952 47.9416 60.5443 47.7419C61.3434 47.592 61.8428 46.9428 61.8428 46.1438C61.8927 45.4446 61.3434 44.7454 60.6442 44.5956ZM58.0972 38.9023C58.6465 38.9023 59.096 39.4017 59.096 39.9011C59.096 40.5004 58.6465 40.9499 58.0473 40.9499C57.448 40.9499 56.9985 40.5004 56.9985 39.9011C57.0484 39.3518 57.4979 38.9023 58.0972 38.9023ZM52.8034 35.2566C52.8034 34.8571 53.1031 34.5574 53.5026 34.5574C53.9021 34.5574 54.2517 34.8571 54.2517 35.2566C54.2517 35.6561 53.9521 36.0057 53.5026 35.9558C53.153 35.9558 52.8034 35.6561 52.8034 35.2566ZM35.4239 40.9998C34.8746 40.9998 34.3752 40.5004 34.3752 39.9511C34.3752 39.3518 34.8246 38.9023 35.4239 38.9023C36.0232 38.9023 36.4727 39.3518 36.4727 39.9511C36.4727 40.5503 36.0232 40.9998 35.4239 40.9998ZM39.9186 35.9558C39.5191 35.9558 39.2195 35.6062 39.2195 35.2066C39.2195 34.8071 39.569 34.5075 39.9186 34.5075C40.3182 34.5075 40.6677 34.8071 40.6178 35.2566C40.6677 35.6561 40.3182 36.0057 39.9186 35.9558ZM33.2765 46.8929C32.8769 46.8929 32.5773 46.5932 32.5773 46.1937C32.5773 45.7942 32.8769 45.4446 33.2765 45.4446C33.676 45.4446 34.0256 45.7942 33.9756 46.1937C34.0256 46.5932 33.676 46.8929 33.2765 46.8929ZM45.7118 32.8594C45.7118 32.3101 46.1613 31.8107 46.7606 31.8107C47.3599 31.8606 47.7594 32.3101 47.7594 32.9094C47.7594 33.4587 47.3099 33.9082 46.7106 33.9082C46.1613 33.9082 45.7118 33.4088 45.7118 32.8594ZM60.2447 46.8929C59.8451 46.8929 59.4955 46.5433 59.4955 46.1438C59.4955 45.7442 59.8451 45.4446 60.1947 45.4446C60.5943 45.4446 60.8939 45.7442 60.8939 46.1937C60.9438 46.5932 60.6442 46.8929 60.2447 46.8929Z" fill="#E29C04"/>
</svg>
