<svg width="94" height="95" viewBox="0 0 94 95" fill="none" xmlns="http://www.w3.org/2000/svg">
<path opacity="0.1" d="M75.9365 29.4818C80.989 34.5343 82.9623 41.8984 81.1129 48.8003L77.2369 63.2659C75.3875 70.1677 69.9966 75.5587 63.0947 77.408L48.6291 81.2841C41.7273 83.1334 34.3631 81.1602 29.3106 76.1077L18.7211 65.5181C13.6686 60.4656 11.6953 53.1015 13.5447 46.1996L17.4207 31.734C19.2701 24.8322 24.661 19.4412 31.5629 17.5919L46.0285 13.7158C52.9303 11.8665 60.2945 13.8397 65.347 18.8922L75.9365 29.4818Z" fill="#32CA5C"/>
<path d="M61.3385 39.019C61.2344 38.8628 61.2344 38.7065 61.3385 38.5503C61.8072 37.8733 61.8072 37.1442 61.3906 36.4672C60.974 35.7902 60.297 35.3736 59.5158 35.5298C58.8909 35.6861 58.5263 35.4777 58.1618 35.0611C58.1097 35.009 58.0576 34.957 57.9535 34.9049C57.7973 34.8007 57.7452 34.6445 57.7973 34.4362C58.0056 33.655 57.641 32.8218 56.964 32.3531C56.2349 31.8844 55.4017 31.8844 54.7247 32.4052C54.5685 32.5614 54.4122 32.5614 54.256 32.4573C51.4438 31.0512 48.4754 30.6345 45.4028 30.9991C43.6843 31.2595 42.0178 31.7282 40.5075 32.5093C40.3513 32.5614 40.2472 32.5614 40.143 32.4573C39.4139 31.8323 38.5286 31.7802 37.7474 32.301C36.9663 32.8218 36.6538 33.7071 36.9663 34.5924C37.0184 34.7487 37.0184 34.8528 36.8621 35.009C36.3934 35.3736 36.0289 35.7902 35.6123 36.2589C35.3519 36.5714 35.3519 36.8318 35.5602 37.0401C35.8206 37.2484 36.081 37.2484 36.3414 36.9359C36.7059 36.5193 37.1225 36.1027 37.5391 35.7381C37.6433 35.634 37.6954 35.634 37.8516 35.6861C38.8411 36.2068 39.8826 35.9464 40.5075 35.0611C40.6117 34.957 40.6638 34.9049 40.82 34.957C42.4344 35.4257 43.9447 36.1027 45.4028 36.9359C45.507 36.988 45.6111 37.0401 45.5591 37.2484C45.4549 37.6129 45.507 37.9775 45.6632 38.2899C45.7153 38.4462 45.7153 38.5503 45.5591 38.6545C44.4134 39.6439 43.3718 40.7896 42.4344 42.0395C42.3303 42.1957 42.174 42.2478 42.0178 42.1957C41.1846 42.0916 40.5075 42.404 40.0389 43.1331C39.9347 43.2894 39.8826 43.3414 39.7264 43.3414C38.0078 43.3935 36.2893 43.4977 34.6228 43.8622C34.1541 43.9664 33.6854 44.0705 33.425 43.4977C33.0084 43.3414 33.0605 43.029 33.2167 42.7165C33.2167 42.6644 33.2167 42.6644 33.2688 42.6124C33.6333 41.4146 34.1541 40.2168 34.8311 39.1752C34.9873 38.9149 35.0394 38.7065 34.8311 38.4462C34.5707 38.1858 34.2583 38.2378 34.0499 38.6024C33.2688 39.8523 32.6959 41.1542 32.3314 42.5603C32.2793 42.8207 32.1752 42.9769 31.8627 42.9769C31.2898 43.029 30.8211 43.3414 30.5608 43.8622C30.4566 44.0705 30.3524 44.3309 30.2483 44.5392C30.2483 44.7996 30.2483 45.06 30.2483 45.3204C30.4566 45.9974 30.8732 46.5702 31.6023 46.7785C31.7585 46.8306 31.7065 46.9348 31.7065 47.0389C31.7065 47.6118 31.7065 48.1846 31.8106 48.7054C32.3314 52.6633 33.9979 56.0483 36.9663 58.7564C37.0704 58.8605 37.1225 58.9647 37.0704 59.1209C36.8621 59.9541 37.1746 60.7874 37.9037 61.2561C38.5807 61.7248 39.4139 61.7248 40.143 61.2561C40.2992 61.1519 40.4034 61.1519 40.5596 61.204C42.6948 62.2976 44.9341 62.8184 47.3297 62.8705C49.9336 62.9226 52.4333 62.4018 54.7768 61.204C54.933 61.1519 55.0372 61.0998 55.1934 61.2561C55.8704 61.8289 56.7557 61.881 57.5369 61.3602C58.266 60.8395 58.5784 60.0062 58.318 59.1209C58.266 58.9647 58.266 58.8605 58.4222 58.7043C61.4948 55.84 63.2654 52.2988 63.5779 48.0805C63.6299 44.8517 62.9529 41.8312 61.3385 39.019ZM38.8411 34.957C38.3203 34.957 37.8516 34.4883 37.8516 33.9675C37.8516 33.3946 38.2682 32.978 38.8411 32.978C39.4139 32.978 39.8305 33.3946 39.8305 33.9675C39.8305 34.4883 39.3618 34.957 38.8411 34.957ZM59.7241 36.4672C60.2449 36.4672 60.7136 36.9359 60.7136 37.4567C60.7136 38.0295 60.2449 38.4462 59.7241 38.4462C59.1513 38.4462 58.7347 38.0295 58.7347 37.4567C58.7347 36.8838 59.1513 36.4672 59.7241 36.4672ZM55.9225 32.9259C56.4953 32.9259 56.9119 33.3426 56.9119 33.9154C56.9119 34.4883 56.4953 34.957 55.9225 34.9049C55.3496 34.9049 54.933 34.4883 54.933 33.9154C54.933 33.3946 55.4017 32.9259 55.9225 32.9259ZM54.3081 35.0611C54.9851 35.9985 56.0787 36.2068 57.0682 35.5819C57.2244 35.4777 57.2765 35.4777 57.3806 35.5819C57.4327 35.634 57.4848 35.6861 57.5369 35.7381C57.9535 36.0506 58.1097 36.311 57.8493 36.8838C57.4848 37.665 57.8493 38.5503 58.5784 39.0711C58.7347 39.1752 58.7347 39.2794 58.6826 39.4356C58.0056 41.675 57.0682 43.8101 55.8704 45.7891C55.7662 45.9974 55.7662 45.9974 55.61 45.9453C55.5579 45.9453 55.5059 45.8932 55.5059 45.8932C54.933 45.9974 54.7768 45.6328 54.6205 45.2162C53.3186 42.7165 51.6521 40.4772 49.5169 38.6024C49.3607 38.4462 49.2566 38.342 49.3607 38.0816C49.4649 37.7692 49.5169 37.4567 49.4649 37.1442C49.4128 36.988 49.4649 36.8838 49.6211 36.7797C51.0272 35.9985 52.4854 35.3215 53.9956 34.8528C54.1518 34.9049 54.2039 34.9049 54.3081 35.0611ZM56.2349 47.8722C56.2349 48.445 55.8183 48.8616 55.2455 48.8616C54.7247 48.8616 54.256 48.393 54.256 47.8201C54.256 47.2993 54.7247 46.8306 55.2455 46.8306C55.7662 46.8827 56.2349 47.2993 56.2349 47.8722ZM40.9762 33.9154C40.82 33.8633 40.7679 33.8113 40.7159 33.603C40.7159 33.4467 40.82 33.3946 40.9242 33.3426C43.0073 32.3531 45.1945 31.8323 47.538 31.8323C49.6732 31.8323 51.8084 32.301 53.7873 33.2384C53.8915 33.2905 54.0998 33.2905 53.9956 33.4988C53.9435 33.655 54.0477 33.9154 53.7352 34.0196C52.1208 34.4883 50.5585 35.1653 49.1003 36.0506C48.9962 36.1027 48.892 36.1548 48.7879 36.0506C48.0067 35.4257 47.0693 35.4257 46.2361 36.0506C46.1319 36.1548 46.0278 36.1548 45.9236 36.1027C44.3613 35.1132 42.7469 34.4362 40.9762 33.9154ZM48.4754 37.5088C48.4754 38.0816 48.0067 38.4982 47.4338 38.4982C46.9131 38.4982 46.4444 38.0295 46.4965 37.4567C46.4965 36.9359 46.9652 36.4672 47.4859 36.4672C48.0588 36.5193 48.4754 36.988 48.4754 37.5088ZM43.2156 42.5603C44.1009 41.3625 45.1424 40.2689 46.2361 39.2794C46.2881 39.2273 46.3402 39.2273 46.3923 39.1752C46.4444 39.2273 46.4965 39.2273 46.5485 39.2794C47.1735 39.5919 47.7984 39.5919 48.3712 39.2794C48.5275 39.1752 48.6316 39.2273 48.7358 39.3315C50.871 41.2583 52.5895 43.4977 53.8394 46.0495C53.8915 46.1536 53.9956 46.2578 53.8394 46.414C53.6831 46.5702 53.579 46.5182 53.4748 46.414C50.6106 45.0079 47.6422 44.0705 44.4654 43.5497C44.3613 43.5497 44.2571 43.4977 44.153 43.4977C43.528 43.6018 43.3197 43.0811 43.0593 42.7165C43.1114 42.6644 43.1635 42.6124 43.2156 42.5603ZM41.7053 43.0811C42.2261 43.0811 42.6948 43.5497 42.6948 44.0705C42.6948 44.6434 42.2782 45.06 41.7053 45.06C41.1325 45.06 40.7159 44.6434 40.7159 44.0705C40.7159 43.5497 41.1846 43.0811 41.7053 43.0811ZM31.0815 44.8517C31.0815 44.3309 31.5502 43.8622 32.071 43.8622C32.6439 43.8622 33.0605 44.2788 33.0605 44.8517C33.0605 45.4245 32.6439 45.8412 32.071 45.8412C31.4981 45.8412 31.0815 45.3725 31.0815 44.8517ZM37.6433 58.0273C37.4871 58.1835 37.435 57.9752 37.3308 57.871C35.6643 56.3087 34.5186 54.3819 33.6854 52.2988C33.0605 50.6844 32.6439 49.0179 32.5397 47.1952C32.4355 46.8827 32.5918 46.7265 32.9563 46.5702C33.5812 46.3099 33.9458 45.7891 33.9979 45.1121C33.9979 44.9038 34.0499 44.8517 34.2583 44.7996C35.9768 44.5392 37.7474 44.3309 39.466 44.2268C39.6222 44.2268 39.7264 44.2268 39.7785 44.4351C39.8305 44.7475 39.9347 45.0079 40.143 45.2683C40.2992 45.4245 40.2472 45.5287 40.1951 45.6849C38.5286 49.122 37.7995 52.7154 38.0078 56.517C38.0078 56.8295 38.0078 57.194 38.0599 57.5065C38.112 57.9231 37.7995 57.871 37.6433 58.0273ZM38.8411 60.6312C38.3203 60.6312 37.8516 60.1625 37.8516 59.6417C37.8516 59.1209 38.2682 58.6522 38.8411 58.6001C39.3618 58.6001 39.8305 59.0688 39.8305 59.5896C39.8305 60.1625 39.3618 60.6312 38.8411 60.6312ZM40.3513 58.3397C40.0909 57.9752 39.7264 57.7669 39.3098 57.6627C39.1535 57.6107 39.0494 57.5586 39.0494 57.3503C38.9452 56.7253 38.9452 56.1004 38.9452 55.4234C38.9452 52.1946 39.6222 49.122 41.0283 46.2057C41.1325 45.9974 41.1846 45.9974 41.3929 45.9974C42.3823 46.1536 43.2677 45.5808 43.5801 44.6434C43.6322 44.4351 43.7364 44.383 43.9447 44.4351C47.1735 44.8517 50.246 45.7891 53.1624 47.2472C53.3186 47.2993 53.3186 47.4035 53.3186 47.5597C53.2665 48.0284 53.3186 48.4971 53.579 48.8616C53.6831 49.0179 53.6311 49.07 53.5269 49.1741C51.1313 52.1425 48.2671 54.5902 44.9341 56.465C43.5801 57.194 42.2261 57.819 40.7679 58.3918C40.5596 58.5481 40.4555 58.496 40.3513 58.3397ZM56.2349 60.6832C55.7142 60.6832 55.2975 60.2145 55.2975 59.6417C55.2975 59.0688 55.7662 58.6522 56.3391 58.7043C56.9119 58.7043 57.3286 59.173 57.2765 59.7458C57.2244 60.3187 56.7557 60.7353 56.2349 60.6832ZM61.0261 53.3403C60.1928 55.0589 59.0471 56.6212 57.641 57.9231C57.5369 58.0273 57.4327 58.1314 57.2765 58.0273C57.1203 57.9231 56.8599 57.9231 56.9119 57.5586C57.0161 56.7774 57.0161 55.9442 57.0161 55.163C57.0161 54.8506 56.8078 54.6422 56.5474 54.6422C56.2349 54.6422 56.0266 54.8506 56.0787 55.2151C56.0787 55.9963 56.0266 56.7774 55.9746 57.5065C55.9746 57.6627 55.9225 57.7669 55.7142 57.819C54.7247 58.1314 54.1518 58.9647 54.3081 60.0062C54.3081 60.2145 54.256 60.2666 54.0998 60.3708C52.0167 61.4123 49.8294 61.881 47.4859 61.9331C45.1945 61.9331 43.0073 61.4123 40.9762 60.4228C40.7679 60.3187 40.7159 60.2666 40.7159 60.0062C40.7159 59.5375 40.9762 59.4334 41.3408 59.2771C46.4444 57.2982 50.7147 54.1735 54.1518 49.9553C54.3081 49.799 54.4122 49.6428 54.6726 49.799C54.7247 49.8511 54.7768 49.8511 54.8809 49.8511C55.3496 49.799 55.4538 50.1115 55.5059 50.476C55.61 51.0489 55.7662 51.6218 55.8183 52.2467C55.8704 52.6633 56.0787 52.8195 56.3912 52.7675C56.6516 52.7154 56.8078 52.5071 56.7557 52.1946C56.6516 51.4134 56.4953 50.6323 56.287 49.8511C56.2349 49.6949 56.287 49.5907 56.3912 49.4866C56.5474 49.3303 56.6516 49.4345 56.7557 49.5387C58.2139 50.5802 59.62 51.7259 60.8698 52.9758C61.0781 53.0799 61.0781 53.1841 61.0261 53.3403ZM62.3801 48.0284C62.2759 49.6428 61.9114 51.2051 61.4948 52.0905C60.1407 50.7885 58.7347 49.5907 57.2244 48.5492C57.1203 48.4971 57.1203 48.393 57.1203 48.2888C57.2244 47.6639 57.1203 47.091 56.7036 46.5702C56.5995 46.4661 56.5995 46.3619 56.7036 46.2057C57.9535 44.1226 58.943 41.8833 59.62 39.5919C59.7241 39.1752 60.0887 39.3836 60.297 39.2794C60.4532 39.1752 60.5053 39.3836 60.5574 39.4877C62.0155 42.1957 62.6405 45.06 62.3801 48.0284Z" fill="#32CA5C"/>
</svg>
