<svg width="94" height="95" viewBox="0 0 94 95" fill="none" xmlns="http://www.w3.org/2000/svg">
<path opacity="0.1" d="M75.5864 29.4818C80.6389 34.5343 82.6122 41.8984 80.7628 48.8003L76.8868 63.2659C75.0374 70.1677 69.6465 75.5587 62.7446 77.408L48.279 81.2841C41.3772 83.1334 34.013 81.1602 28.9605 76.1077L18.371 65.5181C13.3185 60.4656 11.3452 53.1015 13.1946 46.1996L17.0706 31.734C18.92 24.8322 24.3109 19.4412 31.2128 17.5919L45.6784 13.7158C52.5802 11.8665 59.9444 13.8397 64.9969 18.8922L75.5864 29.4818Z" fill="#1DAEF2"/>
<path d="M63.1265 59.2758C62.1979 59.2758 61.2693 59.2758 60.3407 59.2758C60.4568 58.9856 60.4568 58.7534 60.4568 58.5213C60.4568 54.2266 60.4568 49.8738 60.4568 45.5791C60.4568 45.463 60.4568 45.347 60.4568 45.2309C60.3988 44.9407 60.2247 44.7666 59.8764 44.7666C59.5282 44.7666 59.3541 44.9407 59.2961 45.2889C59.2961 45.405 59.2961 45.5211 59.2961 45.6371C59.2961 49.9319 59.2961 54.2266 59.2961 58.5213C59.2961 59.1017 59.122 59.2758 58.5416 59.2758C50.1263 59.2758 41.7109 59.2758 33.3536 59.2758C32.7733 59.2758 32.5992 59.1017 32.5992 58.5213C32.5992 52.8337 32.5992 47.1461 32.5992 41.4585C32.5992 40.8201 32.7152 40.704 33.4117 40.704C37.4743 40.704 41.5949 40.704 45.6574 40.704C45.7735 40.704 45.8896 40.704 46.0057 40.704C46.2958 40.646 46.528 40.4138 46.528 40.1236C46.528 39.8335 46.2958 39.6013 45.9476 39.6013C45.8315 39.6013 45.7735 39.6013 45.6574 39.6013C41.5368 39.6013 37.4162 39.6013 33.3536 39.6013C32.1349 39.6013 31.4384 40.2397 31.4384 41.5165C31.4384 47.2041 31.4384 52.8917 31.4384 58.5793C31.4384 58.8115 31.4384 59.1017 31.4965 59.3918C30.5679 59.3918 29.6393 59.3918 28.7107 59.3918C28.3625 59.3918 28.1303 59.4499 27.8982 59.7401C27.8982 60.0302 27.8982 60.3204 27.8982 60.6106C28.0143 60.6106 27.9562 60.7267 28.0143 60.7847C28.4786 62.2356 29.2911 62.874 30.8 62.874C40.8984 62.874 51.0548 62.874 61.1532 62.874C62.7202 62.874 63.8229 61.7714 63.881 60.2044C63.939 59.4499 63.7649 59.2758 63.1265 59.2758ZM61.2693 61.5972C51.0548 61.5972 40.8984 61.5972 30.684 61.5972C29.8714 61.5972 29.4652 61.249 29.233 60.4365C40.4341 60.4365 51.5772 60.4365 62.7202 60.4365C62.4881 61.191 62.0238 61.5972 61.2693 61.5972Z" fill="#1DAEF2"/>
<path d="M64.8095 37.1057C64.7515 37.0477 64.6934 37.0477 64.6934 36.9896C61.9657 35.0164 59.296 33.0431 56.5683 31.0699C56.2781 30.8958 56.046 30.8378 55.6977 30.8958C52.4477 31.7083 49.1976 32.5789 45.9476 33.3914C45.6574 33.4494 45.4252 33.5655 45.3672 33.8557C45.3092 34.1458 45.4833 34.378 45.7154 34.5521C46.5279 35.1325 47.2824 35.7128 48.0369 36.2352C48.211 36.3512 48.269 36.4673 48.211 36.6414C48.0369 37.3959 47.9208 38.0923 47.7467 38.8468C47.5146 39.7754 47.7467 40.5299 48.3271 41.2263C48.5012 41.4585 48.7333 41.6906 48.9074 41.9228C50.7646 43.6058 52.97 44.4183 55.4076 44.4764C55.8719 44.4764 56.2781 44.4764 56.6844 44.4183C57.9031 44.2442 59.0058 43.896 59.9925 43.1415C60.4568 42.7933 60.7469 42.329 60.863 41.6906C60.9791 40.9361 61.1532 40.1817 61.2693 39.4272C61.3273 39.079 61.4434 38.9629 61.7916 38.9049C62.7202 38.6727 63.5907 38.4406 64.5193 38.2084C64.7515 38.1504 64.9256 37.9763 64.9836 37.7441C65.1577 37.4539 65.0417 37.2798 64.8095 37.1057ZM59.7023 41.7487C59.6442 42.0388 59.3541 42.2129 59.1219 42.329C58.2514 42.9094 57.2647 43.1415 56.2781 43.2576C53.8406 43.4317 51.6932 42.7933 49.836 41.1683C49.6619 40.9942 49.4878 40.8201 49.3717 40.646C48.9655 40.1817 48.7914 39.6593 48.9655 39.0209C49.1396 38.4406 49.1976 37.8022 49.3717 37.1638C49.4878 37.1057 49.5459 37.2218 49.6619 37.2798C51.0548 38.3245 52.5057 39.3111 53.8986 40.4138C54.1888 40.646 54.479 40.704 54.8852 40.5879C56.6263 40.1236 58.3674 39.7174 60.1666 39.2531C60.2246 39.2531 60.2246 39.2531 60.3407 39.2531C60.0505 40.1236 59.8764 40.9361 59.7023 41.7487ZM61.2693 37.8022C59.1219 38.3245 56.9165 38.9049 54.7692 39.4852C54.6531 39.5433 54.537 39.5433 54.4209 39.4852C52.0995 37.7441 49.72 36.0611 47.2824 34.2619C48.5592 33.9717 49.72 33.6235 50.9387 33.3333C52.5638 32.9271 54.1308 32.5208 55.7558 32.1146C55.9299 32.0565 56.046 32.0565 56.162 32.1726C58.4835 33.9137 60.863 35.5968 63.2425 37.3379C62.488 37.512 61.9077 37.6861 61.2693 37.8022Z" fill="#1DAEF2"/>
<path d="M52.3897 49.6417C49.2557 48.0167 46.0637 46.3336 42.9297 44.7086C42.2332 44.3604 41.885 44.5925 41.885 45.347C41.885 46.972 41.885 48.6551 41.885 50.2801C41.885 51.9632 41.885 53.5882 41.885 55.2713C41.885 55.9677 42.2913 56.1999 42.9297 55.9097C46.0637 54.2847 49.2557 52.6016 52.3897 50.9766C52.6798 50.8605 52.912 50.6864 52.912 50.3382C52.912 49.9319 52.6798 49.7578 52.3897 49.6417ZM43.0457 54.4588C43.0457 51.615 43.0457 48.8292 43.0457 46.0434C45.7154 47.4363 48.3851 48.8292 51.1129 50.2801C48.3851 51.673 45.7154 53.0659 43.0457 54.4588Z" fill="#1DAEF2"/>
</svg>
