<svg width="19" height="18" viewBox="0 0 19 18" fill="none" xmlns="http://www.w3.org/2000/svg">
<path d="M16.8171 13.725C16.8171 14.025 16.7421 14.25 16.5921 14.55C16.4421 14.85 16.2921 15.075 16.0671 15.3C15.6921 15.675 15.3171 15.975 14.8671 16.2C14.4171 16.425 13.8921 16.5 13.4421 16.5C12.6921 16.5 11.8671 16.35 10.9671 15.975C10.0671 15.6 9.24214 15.15 8.41714 14.475C7.59214 13.875 6.76714 13.125 5.94214 12.375C5.19214 11.625 4.44214 10.8 3.84214 9.9C3.24214 9.075 2.71714 8.175 2.34214 7.35C1.96714 6.525 1.81714 5.7 1.81714 4.875C1.81714 4.35 1.89214 3.9 2.11714 3.45C2.26714 3 2.56714 2.55 2.94214 2.175C3.46714 1.725 3.91714 1.5 4.51714 1.5C4.74214 1.5 4.96714 1.575 5.11714 1.65C5.34214 1.725 5.49214 1.875 5.64214 2.1L7.36714 4.5C7.51714 4.725 7.59214 4.875 7.66714 5.025C7.74214 5.175 7.74214 5.325 7.74214 5.475C7.74214 5.625 7.66714 5.85 7.59214 6C7.51714 6.225 7.36714 6.375 7.21714 6.525L6.61714 7.125C6.54214 7.2 6.46714 7.35 6.46714 7.425C6.46714 7.5 6.46714 7.5 6.46714 7.575C6.46714 7.65 6.54214 7.65 6.54214 7.725C6.69214 7.95 6.91714 8.325 7.21714 8.7C7.51714 9.075 7.89214 9.45 8.26714 9.9C8.64214 10.275 9.09214 10.65 9.46714 11.025C9.84214 11.325 10.2171 11.55 10.4421 11.7C10.5171 11.7 10.5171 11.775 10.5921 11.775C10.6671 11.775 10.7421 11.775 10.8171 11.775C10.9671 11.775 11.0421 11.7 11.1171 11.625L11.7171 11.025C11.9421 10.8 12.0921 10.725 12.2421 10.575C12.3921 10.5 12.6171 10.425 12.7671 10.425C12.9171 10.425 13.0671 10.425 13.2171 10.5C13.3671 10.575 13.5921 10.65 13.7421 10.8L16.2171 12.525C16.4421 12.675 16.5171 12.825 16.5921 12.975C16.7421 13.35 16.8171 13.5 16.8171 13.725Z" stroke="white" stroke-width="1.5" stroke-miterlimit="10"/>
<path d="M14.1921 6.75C14.1921 6.3 13.8171 5.625 13.2921 5.025C12.8421 4.5 12.1671 4.125 11.5671 4.125" stroke="white" stroke-width="1.5" stroke-linecap="round" stroke-linejoin="round"/>
<path d="M16.8171 6.75C16.8171 3.825 14.4921 1.5 11.5671 1.5" stroke="white" stroke-width="1.5" stroke-linecap="round" stroke-linejoin="round"/>
</svg>
