<svg width="20" height="20" viewBox="0 0 20 20" fill="none" xmlns="http://www.w3.org/2000/svg">
<path d="M7.3 19H12.7C17.2 19 19 17.2 19 12.7V7.3C19 2.8 17.2 1 12.7 1H7.3C2.8 1 1 2.8 1 7.3V12.7C1 17.2 2.8 19 7.3 19Z" stroke="#ADB5BD" stroke-width="1.5" stroke-linecap="round" stroke-linejoin="round"/>
<path d="M1 10.8999H4.42C5.14 10.8999 5.68 11.2599 6.04 11.8899L6.85 13.5099C7.3 14.4999 8.2 14.4999 8.38 14.4999H11.53C12.25 14.4999 12.79 14.1399 13.15 13.5099L13.96 11.8899C14.23 11.2599 14.86 10.8999 15.58 10.8999H19" stroke="#ADB5BD" stroke-width="1.5" stroke-linecap="round" stroke-linejoin="round"/>
<path d="M8.46973 5.5H11.4397" stroke="#ADB5BD" stroke-width="1.5" stroke-linecap="round" stroke-linejoin="round"/>
<path d="M7.75 8.19995H12.25" stroke="#ADB5BD" stroke-width="1.5" stroke-linecap="round" stroke-linejoin="round"/>
</svg>
