<svg width="20" height="20" viewBox="0 0 20 20" fill="none" xmlns="http://www.w3.org/2000/svg">
<path d="M9.81339 15.5802C11.8016 15.5802 13.4134 13.9684 13.4134 11.9802C13.4134 9.99188 11.8016 8.38013 9.81339 8.38013C7.82515 8.38013 6.21338 9.99188 6.21338 11.9802C6.21338 13.9684 7.82515 15.5802 9.81339 15.5802Z" stroke="#ADB5BD" stroke-width="1.5" stroke-miterlimit="10" stroke-linecap="round" stroke-linejoin="round"/>
<path d="M8.40991 12.07L8.99491 12.655C9.16585 12.826 9.44491 12.826 9.61585 12.664L11.2179 11.188" stroke="#ADB5BD" stroke-width="1.5" stroke-linecap="round" stroke-linejoin="round"/>
<path d="M6.21382 19.0001H13.4138C17.0318 19.0001 17.6798 17.5511 17.8688 15.7871L18.5438 8.58708C18.7868 6.3911 18.1568 4.6001 14.3138 4.6001H5.31381C1.47081 4.6001 0.840807 6.3911 1.08381 8.58708L1.75881 15.7871C1.94781 17.5511 2.59581 19.0001 6.21382 19.0001Z" stroke="#ADB5BD" stroke-width="1.5" stroke-miterlimit="10" stroke-linecap="round" stroke-linejoin="round"/>
<path d="M6.21338 4.60001V3.88001C6.21338 2.287 6.21338 1 9.0934 1H10.5334C13.4134 1 13.4134 2.287 13.4134 3.88001V4.60001" stroke="#ADB5BD" stroke-width="1.5" stroke-miterlimit="10" stroke-linecap="round" stroke-linejoin="round"/>
<path d="M18.4989 9.1001C16.9418 10.2341 15.2139 11.0261 13.4229 11.4761" stroke="#ADB5BD" stroke-width="1.5" stroke-miterlimit="10" stroke-linecap="round" stroke-linejoin="round"/>
<path d="M1.37207 9.34302C2.87508 10.369 4.51308 11.098 6.21408 11.512" stroke="#ADB5BD" stroke-width="1.5" stroke-miterlimit="10" stroke-linecap="round" stroke-linejoin="round"/>
</svg>
