<svg width="18" height="18" viewBox="0 0 18 18" fill="none" xmlns="http://www.w3.org/2000/svg">
<path d="M4.76221 7.5V6C4.76221 3.525 5.45971 1.5 8.94721 1.5C12.4347 1.5 13.1322 3.525 13.1322 6V7.5" stroke="white" stroke-width="1.5" stroke-linecap="round" stroke-linejoin="round"/>
<path d="M8.94712 13.875C9.92362 13.875 10.6909 13.05 10.6909 12C10.6909 10.95 9.92362 10.125 8.94712 10.125C7.97062 10.125 7.20337 10.95 7.20337 12C7.20337 13.05 7.97062 13.875 8.94712 13.875Z" stroke="white" stroke-width="1.5" stroke-linecap="round" stroke-linejoin="round"/>
<path d="M12.4347 16.5H5.45967C2.66967 16.5 1.97217 15.75 1.97217 12.75V11.25C1.97217 8.25 2.66967 7.5 5.45967 7.5H12.4347C15.2247 7.5 15.9222 8.25 15.9222 11.25V12.75C15.9222 15.75 15.2247 16.5 12.4347 16.5Z" stroke="white" stroke-width="1.5" stroke-linecap="round" stroke-linejoin="round"/>
</svg>
