<svg width="26" height="25" viewBox="0 0 26 25" fill="none" xmlns="http://www.w3.org/2000/svg">
<g clip-path="url(#clip0_8_209)">
<path d="M2.80864 5.65217C4.35981 5.65217 5.61728 4.38689 5.61728 2.82609C5.61728 1.26528 4.35981 0 2.80864 0C1.25747 0 0 1.26528 0 2.82609C0 4.38689 1.25747 5.65217 2.80864 5.65217Z" fill="#02405B"/>
<path d="M12.9629 5.65217C14.5141 5.65217 15.7716 4.38689 15.7716 2.82609C15.7716 1.26528 14.5141 0 12.9629 0C11.4118 0 10.1543 1.26528 10.1543 2.82609C10.1543 4.38689 11.4118 5.65217 12.9629 5.65217Z" fill="#02405B"/>
<path d="M23.1172 5.65217C24.6684 5.65217 25.9259 4.38689 25.9259 2.82609C25.9259 1.26528 24.6684 0 23.1172 0C21.5661 0 20.3086 1.26528 20.3086 2.82609C20.3086 4.38689 21.5661 5.65217 23.1172 5.65217Z" fill="#02405B"/>
<path d="M2.80864 15.4349C4.35981 15.4349 5.61728 14.1696 5.61728 12.6088C5.61728 11.048 4.35981 9.78271 2.80864 9.78271C1.25747 9.78271 0 11.048 0 12.6088C0 14.1696 1.25747 15.4349 2.80864 15.4349Z" fill="#02405B"/>
<path d="M12.9629 15.4349C14.5141 15.4349 15.7716 14.1696 15.7716 12.6088C15.7716 11.048 14.5141 9.78271 12.9629 9.78271C11.4118 9.78271 10.1543 11.048 10.1543 12.6088C10.1543 14.1696 11.4118 15.4349 12.9629 15.4349Z" fill="#02405B"/>
<path d="M23.1172 15.4349C24.6684 15.4349 25.9259 14.1696 25.9259 12.6088C25.9259 11.048 24.6684 9.78271 23.1172 9.78271C21.5661 9.78271 20.3086 11.048 20.3086 12.6088C20.3086 14.1696 21.5661 15.4349 23.1172 15.4349Z" fill="#02405B"/>
<path d="M2.80864 25.0001C4.35981 25.0001 5.61728 23.7348 5.61728 22.174C5.61728 20.6132 4.35981 19.3479 2.80864 19.3479C1.25747 19.3479 0 20.6132 0 22.174C0 23.7348 1.25747 25.0001 2.80864 25.0001Z" fill="#02405B"/>
<path d="M12.9629 25.0001C14.5141 25.0001 15.7716 23.7348 15.7716 22.174C15.7716 20.6132 14.5141 19.3479 12.9629 19.3479C11.4118 19.3479 10.1543 20.6132 10.1543 22.174C10.1543 23.7348 11.4118 25.0001 12.9629 25.0001Z" fill="#02405B"/>
<path d="M23.1172 25.0001C24.6684 25.0001 25.9259 23.7348 25.9259 22.174C25.9259 20.6132 24.6684 19.3479 23.1172 19.3479C21.5661 19.3479 20.3086 20.6132 20.3086 22.174C20.3086 23.7348 21.5661 25.0001 23.1172 25.0001Z" fill="#02405B"/>
</g>
<defs>
<clipPath id="clip0_8_209">
<rect width="25.9259" height="25" fill="white"/>
</clipPath>
</defs>
</svg>
