<svg width="20" height="20" viewBox="0 0 20 20" fill="none" xmlns="http://www.w3.org/2000/svg">
<path d="M19.0381 10C19.0381 5.032 15.0061 1 10.0381 1C5.07009 1 1.03809 5.032 1.03809 10C1.03809 14.968 5.07009 19 10.0381 19" stroke="#ADB5BD" stroke-width="1.3" stroke-linecap="round" stroke-linejoin="round"/>
<path d="M6.43822 1.8999H7.33822C5.58322 7.1559 5.58322 12.8439 7.33822 18.0999H6.43822" stroke="#ADB5BD" stroke-width="1.3" stroke-linecap="round" stroke-linejoin="round"/>
<path d="M12.7385 1.8999C13.6115 4.5279 14.0525 7.2639 14.0525 9.99986" stroke="#ADB5BD" stroke-width="1.3" stroke-linecap="round" stroke-linejoin="round"/>
<path d="M1.93823 13.6V12.7C4.56623 13.573 7.30223 14.014 10.0382 14.014" stroke="#ADB5BD" stroke-width="1.3" stroke-linecap="round" stroke-linejoin="round"/>
<path d="M1.93823 7.30014C7.19423 5.54514 12.8822 5.54514 18.1382 7.30014" stroke="#ADB5BD" stroke-width="1.3" stroke-linecap="round" stroke-linejoin="round"/>
<path d="M16.5266 13.3661L13.3406 16.5521C13.2146 16.6781 13.0976 16.9121 13.0706 17.0831L12.8996 18.2981C12.8366 18.7391 13.1426 19.0451 13.5836 18.9821L14.7986 18.8111C14.9696 18.7841 15.2126 18.6671 15.3296 18.5411L18.5156 15.3551C19.0646 14.8061 19.3256 14.1671 18.5156 13.3571C17.7146 12.5561 17.0756 12.8171 16.5266 13.3661Z" stroke="#ADB5BD" stroke-width="1.3" stroke-miterlimit="10" stroke-linecap="round" stroke-linejoin="round"/>
<path d="M16.0684 13.825C16.3384 14.797 17.0944 15.553 18.0664 15.823" stroke="#ADB5BD" stroke-width="1.3" stroke-miterlimit="10" stroke-linecap="round" stroke-linejoin="round"/>
</svg>
