<svg width="20" height="20" viewBox="0 0 20 20" fill="none" xmlns="http://www.w3.org/2000/svg">
<path d="M1.08943 3.33593C1.80956 0.221358 6.49943 0.221358 7.21055 3.33593C7.63363 5.16326 6.47242 6.71155 5.46423 7.67473C4.7261 8.37687 3.56489 8.36787 2.82675 7.67473C1.82757 6.71155 0.666355 5.16326 1.08943 3.33593Z" stroke="#ADB5BD" stroke-width="1.5"/>
<path d="M12.7918 14.1379C13.5119 11.0234 18.2288 11.0234 18.9489 14.1379C19.372 15.9653 18.2108 17.5135 17.1936 18.4768C16.4555 19.1789 15.2852 19.1698 14.5471 18.4768C13.5299 17.5135 12.3687 15.9653 12.7918 14.1379Z" stroke="#ADB5BD" stroke-width="1.5"/>
<path d="M10.0278 3.69604H12.4403C14.1056 3.69604 14.8797 5.75742 13.6285 6.85563L6.43619 13.1478C5.18496 14.237 5.9591 16.2984 7.6154 16.2984H10.0278" stroke="#ADB5BD" stroke-width="1.5" stroke-linecap="round" stroke-linejoin="round"/>
<path d="M4.16504 4.14624H4.17657" stroke="#ADB5BD" stroke-width="1.5" stroke-linecap="round" stroke-linejoin="round"/>
<path d="M15.8665 14.9482H15.8781" stroke="#ADB5BD" stroke-width="1.5" stroke-linecap="round" stroke-linejoin="round"/>
</svg>
