<svg width="17" height="18" viewBox="0 0 17 18" fill="none" xmlns="http://www.w3.org/2000/svg">
<path d="M4.49214 15.45C5.61714 16.125 6.96714 16.5 8.31714 16.5C12.4421 16.5 15.8171 13.125 15.8171 9C15.8171 4.875 12.4421 1.5 8.31714 1.5C4.19214 1.5 0.817139 4.875 0.817139 9C0.817139 10.35 1.19214 11.625 1.79214 12.75L1.11714 15.225C0.967139 15.75 1.49214 16.275 2.01714 16.125L4.49214 15.45Z" stroke="white" stroke-width="1.35" stroke-miterlimit="10" stroke-linecap="round" stroke-linejoin="round"/>
<path d="M11.6921 11.1C11.6921 11.25 11.6921 11.325 11.6171 11.475C11.5421 11.625 11.4671 11.7 11.3921 11.85C11.2421 12 11.0171 12.15 10.8671 12.225C10.6421 12.3 10.4171 12.375 10.1921 12.375C9.81714 12.375 9.44214 12.3 9.06714 12.15C8.69214 12 8.31714 11.775 7.86714 11.475C7.49214 11.175 7.11714 10.875 6.74214 10.5C6.36714 10.125 6.06714 9.75005 5.76714 9.37505C5.54214 9.00005 5.31714 8.62505 5.16714 8.25005C5.01714 7.87505 4.94214 7.50005 4.94214 7.12505C4.94214 6.90005 5.01714 6.67505 5.09214 6.45005C5.16714 6.22505 5.31714 6.07505 5.46714 5.85005C5.69214 5.62505 5.91714 5.55005 6.14214 5.55005C6.21714 5.55005 6.36714 5.55005 6.44214 5.62505C6.51714 5.70005 6.59214 5.70005 6.66714 5.85005L7.41714 6.97505C7.49214 7.05005 7.56714 7.12505 7.56714 7.20005C7.56714 7.27505 7.64214 7.35005 7.64214 7.42505C7.64214 7.50005 7.64214 7.57505 7.56714 7.65005C7.49214 7.72505 7.49214 7.80005 7.34214 7.87505L7.11714 8.17505C7.11714 8.17505 7.04214 8.25005 7.04214 8.32505V8.40005V8.47505C7.11714 8.55005 7.19214 8.70005 7.34214 8.92505C7.49214 9.07505 7.64214 9.30005 7.86714 9.45005C8.01714 9.60005 8.24214 9.82505 8.39214 9.97505C8.54214 10.125 8.69214 10.2 8.84214 10.275C8.84214 10.275 8.84214 10.275 8.91714 10.275H8.99214C9.06714 10.275 9.06714 10.275 9.14214 10.2L9.36714 9.97505C9.44214 9.90005 9.51714 9.82505 9.59214 9.75005C9.66714 9.67505 9.74214 9.67505 9.81714 9.67505C9.89214 9.67505 9.96714 9.67505 10.0421 9.75005C10.1171 9.75005 10.1921 9.82505 10.2671 9.90005L11.3921 10.725C11.4671 10.8 11.5421 10.875 11.5421 10.95C11.6921 10.95 11.6921 11.025 11.6921 11.1Z" fill="white"/>
</svg>
