<svg width="14" height="16" viewBox="0 0 14 16" fill="none" xmlns="http://www.w3.org/2000/svg">
<path d="M10.6626 1.78122V0.578319C10.6626 0.262171 10.4005 0 10.0843 0C9.76816 0 9.50599 0.262171 9.50599 0.578319V1.73496H4.49392V0.578319C4.49392 0.262171 4.23175 0 3.9156 0C3.59945 0 3.33728 0.262171 3.33728 0.578319V1.78122C1.25534 1.97399 0.245206 3.21545 0.0909875 5.05836C0.0755657 5.28198 0.260628 5.46704 0.476533 5.46704H13.5234C13.747 5.46704 13.9321 5.27427 13.9089 5.05836C13.7547 3.21545 12.7446 1.97399 10.6626 1.78122Z" fill="#02405B"/>
<path d="M13.1686 6.62354H0.83115C0.40705 6.62354 0.0600586 6.9705 0.0600586 7.3946V12.1445C0.0600586 14.4578 1.2167 16 3.91552 16H10.0842C12.7831 16 13.9397 14.4578 13.9397 12.1445V7.3946C13.9397 6.9705 13.5927 6.62354 13.1686 6.62354ZM4.84854 13.0775C4.80998 13.1084 4.77143 13.1469 4.73287 13.1701C4.68661 13.2009 4.64034 13.224 4.59408 13.2395C4.54781 13.2626 4.50155 13.278 4.45528 13.2857C4.4013 13.2934 4.35504 13.3012 4.30106 13.3012C4.20082 13.3012 4.10058 13.278 4.00805 13.2395C3.90781 13.2009 3.8307 13.1469 3.75359 13.0775C3.61479 12.931 3.52997 12.7305 3.52997 12.5301C3.52997 12.3296 3.61479 12.1291 3.75359 11.9826C3.8307 11.9132 3.90781 11.8592 4.00805 11.8207C4.14684 11.759 4.30106 11.7436 4.45528 11.7744C4.50155 11.7821 4.54781 11.7975 4.59408 11.8207C4.64034 11.8361 4.68661 11.8592 4.73287 11.8901C4.77143 11.9209 4.80998 11.9517 4.84854 11.9826C4.98733 12.1291 5.07215 12.3296 5.07215 12.5301C5.07215 12.7305 4.98733 12.931 4.84854 13.0775ZM4.84854 10.3787C4.70203 10.5175 4.50155 10.6023 4.30106 10.6023C4.10058 10.6023 3.90009 10.5175 3.75359 10.3787C3.61479 10.2322 3.52997 10.0317 3.52997 9.83125C3.52997 9.63076 3.61479 9.43028 3.75359 9.28377C3.96949 9.06786 4.30877 8.99847 4.59408 9.12184C4.69432 9.1604 4.77914 9.21437 4.84854 9.28377C4.98733 9.43028 5.07215 9.63076 5.07215 9.83125C5.07215 10.0317 4.98733 10.2322 4.84854 10.3787ZM7.54736 13.0775C7.40085 13.2163 7.20037 13.3012 6.99988 13.3012C6.7994 13.3012 6.59892 13.2163 6.45241 13.0775C6.31361 12.931 6.22879 12.7305 6.22879 12.5301C6.22879 12.3296 6.31361 12.1291 6.45241 11.9826C6.73771 11.6973 7.26205 11.6973 7.54736 11.9826C7.68615 12.1291 7.77098 12.3296 7.77098 12.5301C7.77098 12.7305 7.68615 12.931 7.54736 13.0775ZM7.54736 10.3787C7.5088 10.4096 7.47025 10.4404 7.43169 10.4713C7.38543 10.5021 7.33916 10.5252 7.2929 10.5406C7.24663 10.5638 7.20037 10.5792 7.1541 10.5869C7.10013 10.5946 7.05386 10.6023 6.99988 10.6023C6.7994 10.6023 6.59892 10.5175 6.45241 10.3787C6.31361 10.2322 6.22879 10.0317 6.22879 9.83125C6.22879 9.63076 6.31361 9.43028 6.45241 9.28377C6.52181 9.21437 6.60663 9.1604 6.70687 9.12184C6.99217 8.99847 7.33145 9.06786 7.54736 9.28377C7.68615 9.43028 7.77098 9.63076 7.77098 9.83125C7.77098 10.0317 7.68615 10.2322 7.54736 10.3787ZM10.2462 13.0775C10.0997 13.2163 9.89919 13.3012 9.6987 13.3012C9.49822 13.3012 9.29774 13.2163 9.15123 13.0775C9.01243 12.931 8.92761 12.7305 8.92761 12.5301C8.92761 12.3296 9.01243 12.1291 9.15123 11.9826C9.43653 11.6973 9.96087 11.6973 10.2462 11.9826C10.385 12.1291 10.4698 12.3296 10.4698 12.5301C10.4698 12.7305 10.385 12.931 10.2462 13.0775ZM10.2462 10.3787C10.2076 10.4096 10.1691 10.4404 10.1305 10.4713C10.0842 10.5021 10.038 10.5252 9.99172 10.5406C9.94545 10.5638 9.89919 10.5792 9.85292 10.5869C9.79895 10.5946 9.74497 10.6023 9.6987 10.6023C9.49822 10.6023 9.29774 10.5175 9.15123 10.3787C9.01243 10.2322 8.92761 10.0317 8.92761 9.83125C8.92761 9.63076 9.01243 9.43028 9.15123 9.28377C9.22834 9.21437 9.30545 9.1604 9.40569 9.12184C9.54449 9.06015 9.6987 9.04473 9.85292 9.07558C9.89919 9.08329 9.94545 9.09871 9.99172 9.12184C10.038 9.13726 10.0842 9.1604 10.1305 9.19124C10.1691 9.22208 10.2076 9.25293 10.2462 9.28377C10.385 9.43028 10.4698 9.63076 10.4698 9.83125C10.4698 10.0317 10.385 10.2322 10.2462 10.3787Z" fill="#02405B"/>
</svg>
