<svg width="34" height="35" viewBox="0 0 34 35" fill="none" xmlns="http://www.w3.org/2000/svg">
<path d="M12.2 33.5H21.8C29.8 33.5 33 30.3 33 22.3V12.7C33 4.7 29.8 1.5 21.8 1.5H12.2C4.2 1.5 1 4.7 1 12.7V22.3C1 30.3 4.2 33.5 12.2 33.5Z" stroke="#E29C04" stroke-width="2" stroke-linecap="round" stroke-linejoin="round"/>
<path d="M1 19.1001H7.08C8.36 19.1001 9.32 19.7401 9.96 20.8601L11.4 23.7401C12.2 25.5001 13.8 25.5001 14.12 25.5001H19.72C21 25.5001 21.96 24.8601 22.6 23.7401L24.04 20.8601C24.52 19.7401 25.64 19.1001 26.92 19.1001H33" stroke="#E29C04" stroke-width="2" stroke-linecap="round" stroke-linejoin="round"/>
<path d="M14.28 9.5H19.56" stroke="#E29C04" stroke-width="2" stroke-linecap="round" stroke-linejoin="round"/>
<path d="M13 14.2998H21" stroke="#E29C04" stroke-width="2" stroke-linecap="round" stroke-linejoin="round"/>
</svg>
