<svg width="16" height="16" viewBox="0 0 16 16" fill="none" xmlns="http://www.w3.org/2000/svg">
<path d="M14.4395 6.90539L10.7038 5.29753L9.87187 4.94556C9.74388 4.88156 9.63189 4.71358 9.63189 4.56959V2.12181C9.63189 1.35388 9.06394 0.441961 8.376 0.089992C8.13602 -0.0299973 7.84805 -0.0299973 7.60807 0.089992C6.92813 0.441961 6.36017 1.36188 6.36017 2.12981V4.57759C6.36017 4.72158 6.24818 4.88956 6.12019 4.95356L1.5606 6.91339C1.05665 7.12137 0.648682 7.75332 0.648682 8.29727V9.35317C0.648682 10.0331 1.16064 10.3691 1.79258 10.0971L5.80022 8.36926C6.11219 8.23327 6.36817 8.40126 6.36817 8.74523V9.63315V11.073C6.36817 11.257 6.26418 11.521 6.13619 11.649L4.28036 13.5128C4.08837 13.7048 4.00038 14.0808 4.08837 14.3527L4.44834 15.4406C4.59233 15.9126 5.12828 16.1366 5.56824 15.9126L7.47208 14.3127C7.76006 14.0648 8.23201 14.0648 8.51999 14.3127L10.4238 15.9126C10.8638 16.1286 11.3997 15.9126 11.5597 15.4406L11.9197 14.3527C12.0077 14.0888 11.9197 13.7048 11.7277 13.5128L9.87187 11.649C9.73588 11.521 9.63189 11.257 9.63189 11.073V8.74523C9.63189 8.40126 9.87987 8.24127 10.1998 8.36926L14.2075 10.0971C14.8394 10.3691 15.3514 10.0331 15.3514 9.35317V8.29727C15.3514 7.75332 14.9434 7.12137 14.4395 6.90539Z" fill="#02405B"/>
</svg>
