<svg width="18" height="16" viewBox="0 0 18 16" fill="none" xmlns="http://www.w3.org/2000/svg">
<path d="M8.01218 2.11225L4.46823 0.360274C2.55626 -0.575712 0.988281 0.376274 0.988281 2.47224V14.344C0.988281 15.256 1.74827 16 2.67626 16H8.61217C9.05216 16 9.41216 15.64 9.41216 15.2V4.32821C9.41216 3.48823 8.78017 2.48824 8.01218 2.11225ZM6.5882 9.4001H3.81224C3.48424 9.4001 3.21225 9.1281 3.21225 8.80011C3.21225 8.47211 3.48424 8.20012 3.81224 8.20012H6.5882C6.91619 8.20012 7.18819 8.47211 7.18819 8.80011C7.18819 9.1281 6.92419 9.4001 6.5882 9.4001ZM6.5882 6.20019H3.81224C3.48424 6.20019 3.21225 5.92819 3.21225 5.6002C3.21225 5.2722 3.48424 5.0002 3.81224 5.0002H6.5882C6.91619 5.0002 7.18819 5.2722 7.18819 5.6002C7.18819 5.92819 6.92419 6.20019 6.5882 6.20019Z" fill="#02405B"/>
<path d="M17.0115 12.8311V13.999C17.0115 15.103 16.1155 15.999 15.0115 15.999H11.3876C10.9556 15.999 10.6116 15.655 10.6116 15.223V13.495C11.4676 13.599 12.3715 13.351 13.0195 12.8311C13.5635 13.271 14.2595 13.535 15.0195 13.535C15.7635 13.535 16.4595 13.271 17.0115 12.8311Z" fill="#02405B"/>
<path d="M17.0115 10.4403V10.4483C16.9475 11.4962 16.0915 12.3362 15.0195 12.3362C13.9075 12.3362 13.0195 11.4322 13.0195 10.3363C13.0195 11.5602 11.8916 12.5442 10.6116 12.2962V8.0003C10.6116 7.48831 11.0836 7.10431 11.5876 7.21631L13.0195 7.53631L13.4035 7.6243L15.0355 7.9923C15.4275 8.0723 15.7875 8.2083 16.0995 8.40829C16.0995 8.41629 16.1075 8.41629 16.1075 8.41629C16.1875 8.47229 16.2675 8.53629 16.3395 8.60829C16.7075 8.97628 16.9475 9.51228 17.0035 10.2963C17.0035 10.3443 17.0115 10.3923 17.0115 10.4403Z" fill="#02405B"/>
</svg>
