<svg width="34" height="35" viewBox="0 0 34 35" fill="none" xmlns="http://www.w3.org/2000/svg">
<path d="M16.9996 27.42C20.5342 27.42 23.3997 24.5545 23.3997 21.0199C23.3997 17.4852 20.5342 14.6199 16.9996 14.6199C13.465 14.6199 10.5996 17.4852 10.5996 21.0199C10.5996 24.5545 13.465 27.42 16.9996 27.42Z" stroke="#32CA5C" stroke-width="2" stroke-miterlimit="10" stroke-linecap="round" stroke-linejoin="round"/>
<path d="M14.5039 21.1798L15.5439 22.2198C15.8478 22.5238 16.3439 22.5238 16.6478 22.2358L19.4959 19.6118" stroke="#32CA5C" stroke-width="2" stroke-linecap="round" stroke-linejoin="round"/>
<path d="M10.6 33.5002H23.3999C29.8319 33.5002 30.984 30.9242 31.3199 27.7882L32.52 14.9881C32.9519 11.0841 31.8319 7.90015 24.9999 7.90015H8.99997C2.16797 7.90015 1.04796 11.0841 1.47997 14.9881L2.67996 27.7882C3.01596 30.9242 4.16797 33.5002 10.6 33.5002Z" stroke="#32CA5C" stroke-width="2" stroke-miterlimit="10" stroke-linecap="round" stroke-linejoin="round"/>
<path d="M10.5996 7.90001V6.62001C10.5996 3.788 10.5996 1.5 15.7196 1.5H18.2796C23.3997 1.5 23.3997 3.788 23.3997 6.62001V7.90001" stroke="#32CA5C" stroke-width="2" stroke-miterlimit="10" stroke-linecap="round" stroke-linejoin="round"/>
<path d="M32.4403 15.9006C29.6722 17.9166 26.6003 19.3246 23.4163 20.1246" stroke="#32CA5C" stroke-width="2" stroke-miterlimit="10" stroke-linecap="round" stroke-linejoin="round"/>
<path d="M1.99219 16.332C4.6642 18.156 7.5762 19.452 10.6002 20.188" stroke="#32CA5C" stroke-width="2" stroke-miterlimit="10" stroke-linecap="round" stroke-linejoin="round"/>
</svg>
