<svg width="34" height="35" viewBox="0 0 34 35" fill="none" xmlns="http://www.w3.org/2000/svg">
<path d="M33 17.5C33 8.668 25.832 1.5 17 1.5C8.168 1.5 1 8.668 1 17.5C1 26.332 8.168 33.5 17 33.5" stroke="#8C46BA" stroke-width="2" stroke-linecap="round" stroke-linejoin="round"/>
<path d="M10.6004 3.1001H12.2004C9.08035 12.4441 9.08035 22.556 12.2004 31.9H10.6004" stroke="#8C46BA" stroke-width="2" stroke-linecap="round" stroke-linejoin="round"/>
<path d="M21.8005 3.1001C23.3525 7.7721 24.1365 12.6361 24.1365 17.5" stroke="#8C46BA" stroke-width="2" stroke-linecap="round" stroke-linejoin="round"/>
<path d="M2.59961 23.8998V22.2998C7.27161 23.8518 12.1356 24.6358 16.9996 24.6358" stroke="#8C46BA" stroke-width="2" stroke-linecap="round" stroke-linejoin="round"/>
<path d="M2.59961 12.7004C11.9436 9.58035 22.0556 9.58035 31.3996 12.7004" stroke="#8C46BA" stroke-width="2" stroke-linecap="round" stroke-linejoin="round"/>
<path d="M28.5356 23.4842L22.8716 29.1484C22.6476 29.3724 22.4396 29.7882 22.3916 30.0922L22.0876 32.2522C21.9756 33.0362 22.5196 33.5802 23.3036 33.4682L25.4636 33.1642C25.7676 33.1162 26.1996 32.9082 26.4076 32.6842L32.0716 27.0202C33.0476 26.0442 33.5116 24.9082 32.0716 23.4682C30.6476 22.0442 29.5116 22.5082 28.5356 23.4842Z" stroke="#8C46BA" stroke-width="2" stroke-miterlimit="10" stroke-linecap="round" stroke-linejoin="round"/>
<path d="M27.7202 24.2998C28.2002 26.0278 29.5442 27.3718 31.2722 27.8518" stroke="#8C46BA" stroke-width="2" stroke-miterlimit="10" stroke-linecap="round" stroke-linejoin="round"/>
</svg>
