<svg width="36" height="35" viewBox="0 0 36 35" fill="none" xmlns="http://www.w3.org/2000/svg">
<path d="M2.12481 5.65276C3.40504 0.115748 11.7426 0.115748 13.0068 5.65276C13.7589 8.90136 11.6946 11.6539 9.90223 13.3662C8.59 14.6144 6.52562 14.5984 5.21338 13.3662C3.43705 11.6539 1.37267 8.90136 2.12481 5.65276Z" stroke="white" stroke-width="2"/>
<path d="M22.9289 24.8564C24.2092 19.3194 32.5947 19.3194 33.875 24.8564C34.6271 28.105 32.5627 30.8574 30.7544 32.5698C29.4422 33.818 27.3618 33.802 26.0494 32.5698C24.2411 30.8574 22.1767 28.105 22.9289 24.8564Z" stroke="white" stroke-width="2"/>
<path d="M18.0152 6.29297H22.304C25.2646 6.29297 26.6408 9.95764 24.4165 11.91L11.6301 23.0961C9.40572 25.0324 10.782 28.6971 13.7265 28.6971H18.0152" stroke="white" stroke-width="2" stroke-linecap="round" stroke-linejoin="round"/>
<path d="M7.59229 7.09326H7.61429" stroke="white" stroke-width="2" stroke-linecap="round" stroke-linejoin="round"/>
<path d="M28.395 26.2966H28.4172" stroke="white" stroke-width="2" stroke-linecap="round" stroke-linejoin="round"/>
</svg>
