<svg width="18" height="16" viewBox="0 0 18 16" fill="none" xmlns="http://www.w3.org/2000/svg">
<path d="M16.5451 4.58208C16.5451 4.89941 16.282 5.16258 15.9646 5.16258H2.03265C1.71531 5.16258 1.45215 4.89941 1.45215 4.58208C1.45215 4.26474 1.71531 4.00158 2.03265 4.00158H2.82213L3.11625 2.60064C3.39488 1.24615 3.97538 0 6.2819 0H11.7154C14.0219 0 14.6024 1.24615 14.881 2.60064L15.1751 4.00158H15.9646C16.282 4.00158 16.5451 4.26474 16.5451 4.58208Z" fill="#02405B"/>
<path d="M16.8792 8.96429C16.7632 7.68719 16.4225 6.32495 13.938 6.32495H4.0618C1.57726 6.32495 1.24444 7.68719 1.1206 8.96429L0.687163 13.6779C0.632983 14.2662 0.826483 14.8544 1.22896 15.2956C1.63918 15.7445 2.21968 15.9999 2.83888 15.9999H4.294C5.54787 15.9999 5.78781 15.2801 5.94261 14.808L6.09741 14.3436C6.27543 13.8095 6.32187 13.6779 7.01847 13.6779H10.9814C11.678 13.6779 11.7012 13.7553 11.9024 14.3436L12.0572 14.808C12.212 15.2801 12.452 15.9999 13.7059 15.9999H15.1609C15.7724 15.9999 16.3607 15.7445 16.7709 15.2956C17.1734 14.8544 17.3669 14.2662 17.3127 13.6779L16.8792 8.96429ZM6.67791 10.5819H4.35592C4.03858 10.5819 3.77542 10.3188 3.77542 10.0014C3.77542 9.6841 4.03858 9.42095 4.35592 9.42095H6.67791C6.99525 9.42095 7.25841 9.6841 7.25841 10.0014C7.25841 10.3188 6.99525 10.5819 6.67791 10.5819ZM13.6439 10.5819H11.3219C11.0046 10.5819 10.7414 10.3188 10.7414 10.0014C10.7414 9.6841 11.0046 9.42095 11.3219 9.42095H13.6439C13.9613 9.42095 14.2244 9.6841 14.2244 10.0014C14.2244 10.3188 13.9613 10.5819 13.6439 10.5819Z" fill="#02405B"/>
</svg>
