<svg width="94" height="95" viewBox="0 0 94 95" fill="none" xmlns="http://www.w3.org/2000/svg">
<path opacity="0.1" d="M75.6077 29.4818C80.6602 34.5343 82.6334 41.8984 80.7841 48.8003L76.908 63.2659C75.0587 70.1677 69.6677 75.5587 62.7659 77.408L48.3003 81.2841C41.3984 83.1334 34.0343 81.1602 28.9818 76.1077L18.3922 65.5181C13.3397 60.4656 11.3665 53.1015 13.2158 46.1996L17.0919 31.734C18.9412 24.8322 24.3322 19.4412 31.234 17.5919L45.6996 13.7158C52.6015 11.8665 59.9656 13.8397 65.0181 18.8922L75.6077 29.4818Z" fill="#32CA5C"/>
<path d="M52.4834 60.8979H47.5928C46.8721 60.8979 45.302 60.6792 44.4654 59.8426L40.5658 56.831L41.7498 55.2995L45.7395 58.3883C46.0613 58.6972 46.8721 58.9546 47.5928 58.9546H52.4834C53.6417 58.9546 54.8901 58.0279 55.1475 56.9855L58.262 47.526C58.4679 46.9598 58.4293 46.445 58.1591 46.0717C57.8759 45.6728 57.3611 45.4411 56.7305 45.4411H51.5825C50.9133 45.4411 50.2955 45.158 49.8708 44.6689C49.4332 44.167 49.2402 43.4977 49.3431 42.8027L49.9866 38.6715C50.1411 37.9508 49.652 37.14 48.957 36.9083C48.3264 36.6766 47.5156 37.0113 47.2325 37.4231L41.9557 45.2738L40.3599 44.2056L45.6366 36.3549C46.4474 35.1451 48.2234 34.566 49.6134 35.0936C51.2222 35.6213 52.2517 37.3974 51.8914 39.0447L51.2608 43.0988C51.2479 43.1888 51.2479 43.3175 51.338 43.4205C51.4023 43.4849 51.4924 43.5235 51.5954 43.5235H56.7434C58.0046 43.5235 59.0986 44.0511 59.7421 44.9649C60.3727 45.8529 60.5014 47.0241 60.0896 48.1567L57.0136 57.526C56.5375 59.3922 54.5555 60.8979 52.4834 60.8979Z" fill="#32CA5C"/>
<path d="M38.4571 59.482H37.1701C34.7892 59.482 33.6309 58.3623 33.6309 56.0715V43.4589C33.6309 41.168 34.7892 40.0483 37.1701 40.0483H38.4571C40.838 40.0483 41.9963 41.168 41.9963 43.4589V56.0715C41.9963 58.3623 40.838 59.482 38.4571 59.482ZM37.1701 41.9788C35.7673 41.9788 35.5614 42.3135 35.5614 43.4589V56.0715C35.5614 57.2169 35.7673 57.5515 37.1701 57.5515H38.4571C39.8599 57.5515 40.0658 57.2169 40.0658 56.0715V43.4589C40.0658 42.3135 39.8599 41.9788 38.4571 41.9788H37.1701Z" fill="#32CA5C"/>
</svg>
