<svg width="94" height="95" viewBox="0 0 94 95" fill="none" xmlns="http://www.w3.org/2000/svg">
<path opacity="0.1" d="M75.6077 29.4818C80.6602 34.5343 82.6334 41.8984 80.7841 48.8003L76.908 63.2659C75.0587 70.1677 69.6677 75.5587 62.7659 77.408L48.3003 81.2841C41.3984 83.1334 34.0343 81.1602 28.9818 76.1077L18.3922 65.5181C13.3397 60.4656 11.3665 53.1015 13.2158 46.1996L17.0919 31.734C18.9412 24.8322 24.3322 19.4412 31.234 17.5919L45.6996 13.7158C52.6015 11.8665 59.9656 13.8397 65.0181 18.8922L75.6077 29.4818Z" fill="#0FC8A6"/>
<path d="M45.027 58.4405C44.6363 58.4405 44.2591 58.3866 43.9493 58.2654C39.342 56.6892 32 51.0581 32 42.7327C32 38.4622 35.4487 35 39.6923 35C41.7265 35 43.626 35.7813 45.0405 37.1689C46.4685 35.7813 48.3545 35 50.3887 35C54.6322 35 58.081 38.4622 58.081 42.7327C58.081 43.3119 58.0405 43.9047 57.9597 44.5109C57.9193 44.8208 57.7307 45.1037 57.4613 45.2653C57.1918 45.427 56.855 45.4405 56.5587 45.3192C54.9017 44.6052 52.8405 45.1441 51.7628 46.5856C51.5742 46.8415 51.2105 46.9762 50.9545 46.9897C50.6312 46.9897 50.3348 46.8415 50.1462 46.5856C49.3783 45.5617 48.2063 44.9824 46.94 44.9824C44.7441 44.9824 42.9524 46.7876 42.9524 49.0104C42.9524 52.513 44.9597 55.0053 46.6571 56.5006C46.8996 56.7162 47.0208 57.026 46.9939 57.3493C46.9669 57.6727 46.7918 57.9556 46.5089 58.1307C46.3607 58.2115 46.2395 58.2654 46.1721 58.2789C45.8218 58.3866 45.4312 58.4405 45.027 58.4405ZM39.6923 37.0207C36.5668 37.0207 34.0207 39.5803 34.0207 42.7327C34.0207 49.7783 39.8809 54.1162 43.2488 55.7866C41.969 54.0757 40.9182 51.8125 40.9182 48.997C40.9182 45.656 43.6125 42.9482 46.9265 42.9482C48.4353 42.9482 49.8498 43.5006 50.941 44.484C52.3017 43.2716 54.2416 42.7192 56.0468 43.056C56.0468 42.9482 56.0468 42.8405 56.0468 42.7462C56.0468 39.5938 53.5006 37.0342 50.3752 37.0342C48.5835 37.0342 46.9265 37.8694 45.8353 39.3109C45.6467 39.5668 45.3503 39.715 45.027 39.715C44.7037 39.715 44.4073 39.5668 44.2187 39.3109C43.1545 37.8559 41.4974 37.0207 39.6923 37.0207Z" fill="#0FC8A6"/>
<path d="M50.9554 60.9999C50.6455 60.9999 50.3222 60.9595 50.0663 60.8652C48.9077 60.4745 47.0352 59.518 45.3243 57.9957C43.3305 56.231 40.946 53.2403 40.946 48.9967C40.946 45.6558 43.6404 42.948 46.9543 42.948C48.4632 42.948 49.8777 43.5003 50.9689 44.4838C52.6663 42.9615 55.2528 42.5304 57.3813 43.4599C59.5637 44.4299 60.9782 46.6123 60.9782 49.0102C60.9782 55.3957 55.3741 59.6797 51.8445 60.8787C51.5751 60.9595 51.2652 60.9999 50.9554 60.9999ZM46.9409 44.9687C44.745 44.9687 42.9533 46.7739 42.9533 48.9967C42.9533 52.4993 44.9605 54.9916 46.658 56.4869C48.1533 57.8071 49.7295 58.6289 50.7129 58.9522C50.8207 58.9926 51.0766 58.9926 51.1709 58.9522C53.1917 58.2652 58.944 54.9646 58.944 48.9967C58.944 47.3936 58.001 45.9387 56.5596 45.3055C54.9295 44.5915 52.8414 45.1304 51.7637 46.5719C51.5751 46.8278 51.2114 46.9625 50.9554 46.976C50.6321 46.976 50.3357 46.8278 50.1471 46.5719C49.3792 45.548 48.2072 44.9687 46.9409 44.9687Z" fill="#0FC8A6"/>
</svg>
