<svg width="94" height="95" viewBox="0 0 94 95" fill="none" xmlns="http://www.w3.org/2000/svg">
<path opacity="0.1" d="M75.6077 29.4818C80.6602 34.5343 82.6334 41.8984 80.7841 48.8003L76.908 63.2659C75.0587 70.1677 69.6677 75.5587 62.7659 77.408L48.3003 81.2841C41.3984 83.1334 34.0343 81.1602 28.9818 76.1077L18.3922 65.5181C13.3397 60.4656 11.3665 53.1015 13.2158 46.1996L17.0919 31.734C18.9412 24.8322 24.3322 19.4412 31.234 17.5919L45.6996 13.7158C52.6015 11.8665 59.9656 13.8397 65.0181 18.8922L75.6077 29.4818Z" fill="#E29C04"/>
<path d="M52.7612 57.3513H41.4044C40.5103 57.3513 39.6042 56.711 39.3021 55.8773L34.3003 41.8745C33.6841 40.1106 34.1311 39.3011 34.6144 38.9387C35.0977 38.5762 36.0038 38.3587 37.5261 39.4461L42.238 42.8169C42.383 42.9015 42.5159 42.9377 42.6125 42.9136C42.7213 42.8773 42.8059 42.7807 42.8663 42.6115L44.9926 36.9452C45.633 35.2537 46.5753 35 47.0828 35C47.5902 35 48.5326 35.2537 49.1729 36.9452L51.2993 42.6115C51.3597 42.7686 51.4443 42.8773 51.553 42.9136C51.6618 42.9498 51.7947 42.9136 51.9276 42.8048L56.3495 39.6515C57.9685 38.4916 58.9108 38.7212 59.4304 39.0957C59.9378 39.4823 60.409 40.3401 59.7445 42.2128L54.8634 55.8773C54.5614 56.711 53.6553 57.3513 52.7612 57.3513ZM35.8226 40.5335C35.8468 40.7026 35.8951 40.9442 36.0159 41.2584L41.0178 55.2612C41.0661 55.382 41.2836 55.539 41.4044 55.539H52.7612C52.8941 55.539 53.1116 55.382 53.1478 55.2612L58.0289 41.6087C58.198 41.1496 58.2463 40.8355 58.2584 40.6543C58.0772 40.7147 57.7993 40.8476 57.4006 41.1375L52.9787 44.2909C52.3746 44.7137 51.6618 44.8466 51.0214 44.6533C50.3811 44.46 49.8616 43.9526 49.5958 43.2639L47.4694 37.5976C47.3123 37.1747 47.1674 36.9693 47.0828 36.8727C46.9982 36.9693 46.8532 37.1747 46.6962 37.5855L44.5698 43.2519C44.3161 43.9405 43.7966 44.4479 43.1441 44.6413C42.5038 44.8346 41.7789 44.7017 41.1869 44.2788L36.475 40.908C36.1971 40.7147 35.9797 40.5939 35.8226 40.5335Z" fill="#E29C04"/>
<path d="M53.7273 61H40.4374C39.942 61 39.5312 60.5892 39.5312 60.0939C39.5312 59.5985 39.942 59.1877 40.4374 59.1877H53.7273C54.2227 59.1877 54.6335 59.5985 54.6335 60.0939C54.6335 60.5892 54.2227 61 53.7273 61Z" fill="#E29C04"/>
<path d="M50.1028 51.3345H44.0619C43.5665 51.3345 43.1558 50.9237 43.1558 50.4283C43.1558 49.933 43.5665 49.5222 44.0619 49.5222H50.1028C50.5981 49.5222 51.0089 49.933 51.0089 50.4283C51.0089 50.9237 50.5981 51.3345 50.1028 51.3345Z" fill="#E29C04"/>
</svg>
