<svg width="94" height="95" viewBox="0 0 94 95" fill="none" xmlns="http://www.w3.org/2000/svg">
<path opacity="0.1" d="M75.6077 29.4818C80.6602 34.5343 82.6334 41.8984 80.7841 48.8003L76.908 63.2659C75.0587 70.1677 69.6677 75.5587 62.7659 77.408L48.3003 81.2841C41.3984 83.1334 34.0343 81.1602 28.9818 76.1077L18.3922 65.5181C13.3397 60.4656 11.3665 53.1015 13.2158 46.1996L17.0919 31.734C18.9412 24.8322 24.3322 19.4412 31.234 17.5919L45.6996 13.7158C52.6015 11.8665 59.9656 13.8397 65.0181 18.8922L75.6077 29.4818Z" fill="#8C46BA"/>
<path d="M47.186 61C46.2307 61 45.3237 60.5163 44.6949 59.6577L43.4735 58.0251C43.2195 57.6865 42.8809 57.493 42.5181 57.4688C42.1553 57.4447 41.7926 57.614 41.5023 57.9163L40.813 57.3116L41.4781 57.9284C39.7247 59.7907 38.3944 59.6456 37.7535 59.3916C37.1005 59.1377 36 58.3033 36 55.6186V42.0019C36 36.6326 37.5479 35 42.6149 35H51.7451C56.8121 35 58.36 36.6326 58.36 42.0019V55.6186C58.36 58.2912 57.2595 59.1256 56.6065 59.3916C55.9656 59.6456 54.6353 59.7907 52.8819 57.9284C52.5916 57.614 52.2167 57.4567 51.854 57.4809C51.4912 57.5051 51.1405 57.6986 50.8865 58.0372L49.6651 59.6698C49.0484 60.5163 48.1414 61 47.186 61ZM42.4456 55.6549C42.494 55.6549 42.5544 55.6549 42.6028 55.6549C43.4977 55.7033 44.3442 56.1749 44.9126 56.9367L46.146 58.5693C46.7386 59.3553 47.6456 59.3553 48.2381 58.5693L49.4595 56.9367C50.0279 56.1749 50.8744 55.7033 51.7814 55.6549C52.6884 55.6065 53.5712 55.9814 54.2242 56.6828C55.1433 57.6623 55.7358 57.7833 55.9535 57.6986C56.2437 57.5777 56.5581 56.8763 56.5581 55.6186V42.0019C56.5581 37.6363 55.7963 36.814 51.7572 36.814H42.6149C38.5758 36.814 37.814 37.6363 37.814 42.0019V55.6186C37.814 56.8884 38.1284 57.5898 38.4186 57.6986C38.6363 57.7833 39.2288 57.6623 40.1479 56.6828C40.7767 56.0177 41.5991 55.6549 42.4456 55.6549Z" fill="#8C46BA"/>
<path d="M50.814 50.4186C50.1368 50.4186 49.6047 49.8744 49.6047 49.2093C49.6047 48.5442 50.1489 48 50.814 48C51.4792 48 52.0233 48.5442 52.0233 49.2093C52.0233 49.8744 51.4912 50.4186 50.814 50.4186Z" fill="#8C46BA"/>
<path d="M43.5582 44.372C42.881 44.372 42.3489 43.8278 42.3489 43.1627C42.3489 42.4976 42.8931 41.9534 43.5582 41.9534C44.2233 41.9534 44.7675 42.4976 44.7675 43.1627C44.7675 43.8278 44.2354 44.372 43.5582 44.372Z" fill="#8C46BA"/>
<path d="M43.111 51.0834C42.8812 51.0834 42.6514 50.9987 42.4701 50.8173C42.1194 50.4666 42.1194 49.8862 42.4701 49.5355L50.6086 41.3968C50.9593 41.0461 51.5398 41.0461 51.8905 41.3968C52.2412 41.7475 52.2412 42.328 51.8905 42.6787L43.7519 50.8173C43.5826 50.9987 43.3528 51.0834 43.111 51.0834Z" fill="#8C46BA"/>
</svg>
