<svg width="94" height="95" viewBox="0 0 94 95" fill="none" xmlns="http://www.w3.org/2000/svg">
<path opacity="0.1" d="M75.6077 29.4818C80.6602 34.5343 82.6334 41.8984 80.7841 48.8003L76.908 63.2659C75.0587 70.1677 69.6677 75.5587 62.7659 77.408L48.3003 81.2841C41.3984 83.1334 34.0343 81.1602 28.9818 76.1077L18.3922 65.5181C13.3397 60.4656 11.3665 53.1015 13.2158 46.1996L17.0919 31.734C18.9412 24.8322 24.3322 19.4412 31.234 17.5919L45.6996 13.7158C52.6015 11.8665 59.9656 13.8397 65.0181 18.8922L75.6077 29.4818Z" fill="#1DAEF2"/>
<path d="M47.1959 61C45.834 61 44.5702 60.4233 43.6254 59.3926L35.2082 50.1411C34.018 48.8405 33.6499 46.546 34.3616 44.9386L37.5027 37.8712C38.3616 35.9448 39.7972 35 41.9076 35H52.4475C54.5579 35 55.9935 35.9325 56.8524 37.8589L59.9935 44.9264C60.7051 46.5338 60.3493 48.8282 59.1591 50.1289L50.7542 59.3926C49.834 60.4233 48.5579 61 47.1959 61ZM52.4597 36.8282H41.9199C40.3125 36.8282 39.6622 37.5399 39.196 38.6073L36.0549 45.6749C35.6377 46.6197 35.8831 48.1289 36.5702 48.8896L44.9873 58.1411C45.5763 58.7914 46.3616 59.1472 47.1959 59.1472C48.0303 59.1472 48.8156 58.7914 49.4045 58.1411L57.8094 48.8773C58.5088 48.1043 58.7542 46.6074 58.3247 45.6626L55.1836 38.5951C54.7174 37.5399 54.0671 36.8282 52.4597 36.8282Z" fill="#1DAEF2"/>
<path d="M36.7655 44.0058C36.2624 44.0058 35.8452 43.5887 35.8452 43.0856C35.8452 42.5825 36.2624 42.1653 36.7655 42.1653L57.6243 42.1531C58.1274 42.1531 58.5446 42.5703 58.5446 43.0733C58.5446 43.5764 58.1274 43.9936 57.6243 43.9936L36.7655 44.0058Z" fill="#1DAEF2"/>
</svg>
