<svg width="94" height="95" viewBox="0 0 94 95" fill="none" xmlns="http://www.w3.org/2000/svg">
<path opacity="0.1" d="M75.6077 29.4818C80.6602 34.5343 82.6334 41.8984 80.7841 48.8003L76.908 63.2659C75.0587 70.1677 69.6677 75.5587 62.7659 77.408L48.3003 81.2841C41.3984 83.1334 34.0343 81.1602 28.9818 76.1077L18.3922 65.5181C13.3397 60.4656 11.3665 53.1015 13.2158 46.1996L17.0919 31.734C18.9412 24.8322 24.3322 19.4412 31.234 17.5919L45.6996 13.7158C52.6015 11.8665 59.9656 13.8397 65.0181 18.8922L75.6077 29.4818Z" fill="#F1315F"/>
<path d="M46.3031 61C44.9854 61 43.6798 60.6132 42.6522 59.8516L37.454 55.971C36.0759 54.9435 35 52.7917 35 51.0872V42.0931C35 40.2314 36.366 38.2489 38.1189 37.5961L44.1513 35.3355C45.348 34.8882 47.2339 34.8882 48.4307 35.3355L54.463 37.5961C56.2159 38.2489 57.5819 40.2314 57.5819 42.0931V51.0751C57.5819 52.7917 56.506 54.9314 55.1279 55.959L49.9297 59.8395C48.9263 60.6132 47.6207 61 46.3031 61ZM44.792 37.04L38.7596 39.3006C37.7321 39.6874 36.8254 40.993 36.8254 42.1052V51.0872C36.8254 52.2356 37.6354 53.8434 38.542 54.5204L43.7402 58.4009C45.1305 59.4405 47.4757 59.4405 48.878 58.4009L54.0762 54.5204C54.9949 53.8313 55.7928 52.2356 55.7928 51.0872V42.0931C55.7928 40.993 54.8861 39.6874 53.8586 39.2885L47.8263 37.0279C47.0042 36.7378 45.6019 36.7378 44.792 37.04Z" fill="#F1315F"/>
<path d="M44.6829 50.6884C44.4532 50.6884 44.2235 50.6038 44.0422 50.4225L42.0959 48.4762C41.7454 48.1256 41.7454 47.5453 42.0959 47.1947C42.4465 46.8442 43.0268 46.8442 43.3774 47.1947L44.6829 48.5003L49.2404 43.9429C49.591 43.5923 50.1712 43.5923 50.5218 43.9429C50.8724 44.2934 50.8724 44.8737 50.5218 45.2243L45.3236 50.4225C45.1423 50.6038 44.9126 50.6884 44.6829 50.6884Z" fill="#F1315F"/>
</svg>
