<svg width="36" height="36" viewBox="0 0 36 36" fill="none" xmlns="http://www.w3.org/2000/svg">
<circle opacity="0.2" cx="18" cy="18" r="18" fill="#99BF34"/>
<path d="M26.973 23.697C26.973 24.021 26.901 24.354 26.748 24.678C26.595 25.002 26.397 25.308 26.136 25.596C25.695 26.082 25.209 26.433 24.66 26.658C24.12 26.883 23.535 27 22.905 27C21.987 27 21.006 26.784 19.971 26.343C18.936 25.902 17.901 25.308 16.875 24.561C15.84 23.805 14.859 22.968 13.923 22.041C12.996 21.105 12.159 20.124 11.412 19.098C10.674 18.072 10.08 17.046 9.648 16.029C9.216 15.003 9 14.022 9 13.086C9 12.474 9.108 11.889 9.324 11.349C9.54 10.8 9.882 10.296 10.359 9.846C10.935 9.279 11.565 9 12.231 9C12.483 9 12.735 9.054 12.96 9.162C13.194 9.27 13.401 9.432 13.563 9.666L15.651 12.609C15.813 12.834 15.93 13.041 16.011 13.239C16.092 13.428 16.137 13.617 16.137 13.788C16.137 14.004 16.074 14.22 15.948 14.427C15.831 14.634 15.66 14.85 15.444 15.066L14.76 15.777C14.661 15.876 14.616 15.993 14.616 16.137C14.616 16.209 14.625 16.272 14.643 16.344C14.67 16.416 14.697 16.47 14.715 16.524C14.877 16.821 15.156 17.208 15.552 17.676C15.957 18.144 16.389 18.621 16.857 19.098C17.343 19.575 17.811 20.016 18.288 20.421C18.756 20.817 19.143 21.087 19.449 21.249C19.494 21.267 19.548 21.294 19.611 21.321C19.683 21.348 19.755 21.357 19.836 21.357C19.989 21.357 20.106 21.303 20.205 21.204L20.889 20.529C21.114 20.304 21.33 20.133 21.537 20.025C21.744 19.899 21.951 19.836 22.176 19.836C22.347 19.836 22.527 19.872 22.725 19.953C22.923 20.034 23.13 20.151 23.355 20.304L26.334 22.419C26.568 22.581 26.73 22.77 26.829 22.995C26.919 23.22 26.973 23.445 26.973 23.697Z" fill="#99BF34"/>
<path d="M23.85 15.3C23.85 14.76 23.427 13.932 22.797 13.257C22.221 12.636 21.456 12.15 20.7 12.15" stroke="#006AAE" stroke-width="1.5" stroke-linecap="round" stroke-linejoin="round"/>
<path d="M27 15.3C27 11.817 24.183 9 20.7 9" stroke="#006AAE" stroke-width="1.5" stroke-linecap="round" stroke-linejoin="round"/>
</svg>
