<svg width="18" height="17" viewBox="0 0 18 17" fill="none" xmlns="http://www.w3.org/2000/svg">
<path d="M8.94626 3.98558C6.62446 3.98558 4.75168 5.85836 4.75168 8.18016C4.75168 10.502 6.62446 12.3747 8.94626 12.3747C11.2681 12.3747 13.1408 10.502 13.1408 8.18016C13.1408 5.85836 11.2681 3.98558 8.94626 3.98558ZM8.94626 10.9072C7.44585 10.9072 6.21924 9.68422 6.21924 8.18016C6.21924 6.6761 7.4422 5.45314 8.94626 5.45314C10.4503 5.45314 11.6733 6.6761 11.6733 8.18016C11.6733 9.68422 10.4467 10.9072 8.94626 10.9072ZM14.2908 3.814C14.2908 4.35795 13.8527 4.79237 13.3124 4.79237C12.7685 4.79237 12.3341 4.35429 12.3341 3.814C12.3341 3.27371 12.7721 2.83563 13.3124 2.83563C13.8527 2.83563 14.2908 3.27371 14.2908 3.814ZM17.0689 4.80697C17.0069 3.4964 16.7075 2.33549 15.7474 1.37903C14.7909 0.422561 13.63 0.123209 12.3194 0.0574975C10.9687 -0.0191658 6.92016 -0.0191658 5.56943 0.0574975C4.2625 0.119558 3.1016 0.41891 2.14148 1.37538C1.18136 2.33184 0.88566 3.49274 0.819949 4.80332C0.743285 6.15406 0.743285 10.2026 0.819949 11.5533C0.882009 12.8639 1.18136 14.0248 2.14148 14.9813C3.1016 15.9378 4.25885 16.2371 5.56943 16.3028C6.92016 16.3795 10.9687 16.3795 12.3194 16.3028C13.63 16.2408 14.7909 15.9414 15.7474 14.9813C16.7039 14.0248 17.0032 12.8639 17.0689 11.5533C17.1456 10.2026 17.1456 6.15771 17.0689 4.80697ZM15.3239 13.0026C15.0392 13.7182 14.4879 14.2694 13.7688 14.5578C12.6918 14.9849 10.1364 14.8864 8.94626 14.8864C7.75616 14.8864 5.19706 14.9813 4.12377 14.5578C3.40825 14.2731 2.857 13.7218 2.5686 13.0026C2.14148 11.9257 2.24005 9.37027 2.24005 8.18016C2.24005 6.99005 2.14513 4.43096 2.5686 3.35767C2.85335 2.64215 3.4046 2.0909 4.12377 1.8025C5.20071 1.37538 7.75616 1.47394 8.94626 1.47394C10.1364 1.47394 12.6955 1.37903 13.7688 1.8025C14.4843 2.08725 15.0355 2.6385 15.3239 3.35767C15.751 4.43461 15.6525 6.99005 15.6525 8.18016C15.6525 9.37027 15.751 11.9294 15.3239 13.0026Z" fill="#006AAE"/>
</svg>
