<svg width="17" height="17" viewBox="0 0 17 17" fill="none" xmlns="http://www.w3.org/2000/svg">
<path d="M3.82159 16.3603H0.429667V5.43737H3.82159V16.3603ZM2.1238 3.94738C1.03918 3.94738 0.159424 3.049 0.159424 1.96438C0.159424 1.44339 0.366384 0.943745 0.734777 0.575353C1.10317 0.206961 1.60282 0 2.1238 0C2.64479 0 3.14443 0.206961 3.51283 0.575353C3.88122 0.943745 4.08818 1.44339 4.08818 1.96438C4.08818 3.049 3.20806 3.94738 2.1238 3.94738ZM16.5165 16.3603H13.1318V11.0431C13.1318 9.77588 13.1063 8.15076 11.3683 8.15076C9.6048 8.15076 9.33456 9.52754 9.33456 10.9518V16.3603H5.94629V5.43737H9.19943V6.92736H9.24691C9.69975 6.06916 10.8059 5.16348 12.4562 5.16348C15.8891 5.16348 16.5201 7.42403 16.5201 10.3602V16.3603H16.5165Z" fill="#006AAE"/>
</svg>
