<svg width="36" height="36" viewBox="0 0 36 36" fill="none" xmlns="http://www.w3.org/2000/svg">
<circle opacity="0.2" cx="18" cy="18" r="18" fill="#99BF34"/>
<path d="M22.5 9H13.5C10.8 9 9 10.35 9 13.5V19.8C9 22.95 10.8 24.3 13.5 24.3H16.713C17.244 24.3 17.676 23.832 17.604 23.301C17.514 22.662 17.532 21.996 17.667 21.312C18.144 18.972 20.07 17.109 22.428 16.722C23.607 16.533 24.732 16.695 25.722 17.127C26.325 17.388 27 16.974 27 16.317V13.5C27 10.35 25.2 9 22.5 9ZM22.923 14.031L20.106 16.281C19.512 16.758 18.756 16.992 18 16.992C17.244 16.992 16.479 16.758 15.894 16.281L13.077 14.031C12.789 13.797 12.744 13.374 12.969 13.077C13.203 12.789 13.626 12.735 13.914 12.969L16.731 15.219C17.415 15.768 18.576 15.768 19.26 15.219L22.077 12.969C22.365 12.735 22.797 12.78 23.022 13.077C23.256 13.374 23.211 13.797 22.923 14.031Z" fill="#99BF34"/>
<path d="M23.3999 18C20.9159 18 18.8999 20.007 18.8999 22.5C18.8999 24.984 20.9159 27 23.3999 27C25.8929 27 27.8999 24.984 27.8999 22.5C27.8999 20.007 25.8929 18 23.3999 18ZM25.2449 22.095L24.9119 22.419L22.9499 24.39C22.8599 24.471 22.6889 24.561 22.5629 24.579L21.6809 24.705C21.3659 24.75 21.1409 24.525 21.1859 24.21L21.3119 23.328C21.3299 23.202 21.4109 23.031 21.5009 22.941L23.4629 20.988L23.7869 20.655C24.0029 20.439 24.2459 20.295 24.4979 20.295C24.7139 20.295 24.9569 20.394 25.2269 20.655C25.8299 21.24 25.6409 21.699 25.2449 22.095Z" fill="#006AAE"/>
</svg>
