<svg width="14" height="17" viewBox="0 0 14 17" fill="none" xmlns="http://www.w3.org/2000/svg">
<path d="M7.20696 0C3.84382 0 0.52002 2.24209 0.52002 5.87074C0.52002 8.1784 1.81807 9.48956 2.60477 9.48956C2.92929 9.48956 3.11613 8.58486 3.11613 8.32918C3.11613 8.02433 2.33926 7.37531 2.33926 6.10675C2.33926 3.47131 4.34534 1.6029 6.94145 1.6029C9.17371 1.6029 10.8258 2.87145 10.8258 5.20205C10.8258 6.94262 10.1276 10.2074 7.86582 10.2074C7.04962 10.2074 6.35143 9.6174 6.35143 8.7717C6.35143 7.53265 7.2168 6.33293 7.2168 5.05454C7.2168 2.88456 4.13884 3.27791 4.13884 5.90024C4.13884 6.45093 4.20767 7.06063 4.45352 7.56215C4.00116 9.50923 3.07679 12.4102 3.07679 14.4163C3.07679 15.0358 3.1653 15.6455 3.2243 16.265C3.33575 16.3896 3.28002 16.3765 3.45047 16.3142C5.10254 14.0524 5.04354 13.6099 5.7909 10.6499C6.19409 11.417 7.23646 11.83 8.0625 11.83C11.5436 11.83 13.1072 8.43735 13.1072 5.37906C13.1072 2.12409 10.2948 0 7.20696 0Z" fill="#006AAE"/>
</svg>
