<svg width="32" height="32" viewBox="0 0 32 32" fill="none" xmlns="http://www.w3.org/2000/svg">
<path d="M8.72666 29.1181C10.9032 30.3328 13.4512 31 16 31C24.2523 31 31 24.2523 31 16C31 7.74771 24.2523 1 16 1C7.74771 1 1 7.74771 1 16C1 18.566 1.67563 20.982 2.75558 23.1199L1.64879 27.3768C1.18144 29.1742 2.8452 30.7985 4.63092 30.2883L8.72666 29.1181Z" fill="#99BF34" stroke="white" stroke-width="2" stroke-miterlimit="10" stroke-linecap="round" stroke-linejoin="round"/>
<path d="M22.3 19.9879C22.3 20.2147 22.2494 20.4478 22.1422 20.6746C22.0349 20.9014 21.8962 21.1156 21.7132 21.3172C21.404 21.6574 21.0633 21.9031 20.6785 22.0606C20.2999 22.2181 19.8897 22.3 19.448 22.3C18.8046 22.3 18.1168 22.1488 17.3911 21.8401C16.6657 21.5314 15.94 21.1156 15.2207 20.5927C14.4951 20.0635 13.8074 19.4776 13.1512 18.8287C12.5014 18.1735 11.9146 17.4868 11.3909 16.7686C10.8735 16.0504 10.4571 15.3322 10.1542 14.6203C9.85138 13.9021 9.69995 13.2154 9.69995 12.5602C9.69995 12.1318 9.77566 11.7223 9.92709 11.3443C10.0785 10.96 10.3183 10.6072 10.6527 10.2922C11.0565 9.89531 11.4982 9.70001 11.9651 9.70001C12.1417 9.70001 12.3184 9.73781 12.4761 9.81341C12.6402 9.88901 12.7853 10.0024 12.8989 10.1662L14.3627 12.2263C14.4762 12.3838 14.5582 12.5287 14.6151 12.6673C14.6718 12.7996 14.7034 12.9319 14.7034 13.0516C14.7034 13.2028 14.6592 13.354 14.5708 13.4989C14.4888 13.6438 14.369 13.795 14.2175 13.9462L13.738 14.4439C13.6687 14.5132 13.637 14.5951 13.637 14.6959C13.637 14.7463 13.6433 14.7904 13.6559 14.8408C13.675 14.8912 13.6939 14.929 13.7065 14.9668C13.82 15.1747 14.0156 15.4456 14.2932 15.7732C14.5771 16.1008 14.88 16.4347 15.2081 16.7686C15.5489 17.1025 15.8769 17.4112 16.2114 17.6947C16.5394 17.9719 16.8107 18.1609 17.0252 18.2743C17.0568 18.2869 17.0946 18.3058 17.1389 18.3247C17.1893 18.3436 17.2398 18.3499 17.2965 18.3499C17.4039 18.3499 17.4858 18.3121 17.5552 18.2428L18.0347 17.7703C18.1925 17.6128 18.344 17.4931 18.489 17.4175C18.6342 17.3293 18.7792 17.2852 18.937 17.2852C19.0569 17.2852 19.1831 17.3104 19.3219 17.3671C19.4608 17.4238 19.6058 17.5057 19.7636 17.6128L21.852 19.0933C22.016 19.2067 22.1296 19.339 22.199 19.4965C22.2622 19.654 22.3 19.8115 22.3 19.9879Z" fill="white"/>
</svg>
