<svg width="17" height="12" viewBox="0 0 17 12" fill="none" xmlns="http://www.w3.org/2000/svg">
<path d="M16.1256 2.22838C15.9375 1.51991 15.3831 0.961935 14.6792 0.772579C13.4034 0.428497 8.28734 0.428497 8.28734 0.428497C8.28734 0.428497 3.17135 0.428497 1.89547 0.772579C1.19158 0.961965 0.6372 1.51991 0.449042 2.22838C0.107178 3.51253 0.107178 6.19179 0.107178 6.19179C0.107178 6.19179 0.107178 8.87105 0.449042 10.1552C0.6372 10.8637 1.19158 11.3984 1.89547 11.5878C3.17135 11.9318 8.28734 11.9318 8.28734 11.9318C8.28734 11.9318 13.4033 11.9318 14.6792 11.5878C15.3831 11.3984 15.9375 10.8637 16.1256 10.1552C16.4675 8.87105 16.4675 6.19179 16.4675 6.19179C16.4675 6.19179 16.4675 3.51253 16.1256 2.22838ZM6.61411 8.62436V3.75922L10.8901 6.19185L6.61411 8.62436Z" fill="#006AAE"/>
</svg>
