<svg width="32" height="29" viewBox="0 0 32 29" fill="none" xmlns="http://www.w3.org/2000/svg">
<path d="M9.74953 13.5117H2.24127C2.36934 6.03547 3.84218 4.80277 8.43679 2.08123C8.96509 1.76105 9.14119 1.08867 8.82101 0.544357C8.51683 0.0160568 7.82844 -0.160043 7.30014 0.160139C1.88907 3.36196 0 5.31506 0 14.6163V23.2452C0 25.9827 2.22526 28.192 4.94681 28.192H9.74953C12.5671 28.192 14.6963 26.0628 14.6963 23.2452V18.4424C14.6963 15.6409 12.5671 13.5117 9.74953 13.5117Z" fill="#99BF34"/>
<path d="M27.069 13.5117H19.5607C19.6888 6.03547 21.1617 4.80277 25.7563 2.08123C26.2846 1.76105 26.4607 1.08867 26.1405 0.544357C25.8203 0.0160568 25.1479 -0.160043 24.6036 0.160139C19.1925 3.36196 17.3035 5.31506 17.3035 14.6323V23.2612C17.3035 25.9987 19.5287 28.208 22.2503 28.208H27.053C29.8706 28.208 31.9998 26.0788 31.9998 23.2612V18.4585C32.0158 15.6409 29.8866 13.5117 27.069 13.5117Z" fill="#99BF34"/>
</svg>
