<svg width="24" height="30" viewBox="0 0 24 30" fill="none" xmlns="http://www.w3.org/2000/svg">
<path d="M19.7499 15.8749C19.7499 13.6249 20.8749 11.6249 22.8749 10.4999C21.6249 8.74994 19.7499 7.74994 17.6249 7.74994C15.4999 7.49994 13.3749 8.99994 12.2499 8.99994C11.1249 8.99994 9.37493 7.74994 7.49993 7.74994C5.12493 7.87494 2.87493 9.12494 1.62493 11.2499C-0.875071 15.6249 0.99993 21.9999 3.37493 25.4999C4.62493 27.2499 5.99993 29.1249 7.87493 29.1249C9.62493 28.9999 10.3749 27.9999 12.4999 27.9999C14.6249 27.9999 15.2499 29.1249 17.1249 29.1249C18.9999 29.1249 20.2499 27.3749 21.4999 25.6249C22.3749 24.3749 22.9999 22.9999 23.4999 21.6249C21.2499 20.6249 19.7499 18.3749 19.7499 15.8749Z" fill="#006AAE"/>
<path d="M16.25 5.37494C17.25 4.12494 17.875 2.49994 17.75 0.874939C16.125 0.999939 14.625 1.87494 13.625 2.99994C12.625 4.24994 12 5.74994 12.125 7.37494C13.625 7.37494 15.125 6.62494 16.25 5.37494Z" fill="#006AAE"/>
</svg>
