<svg width="24" height="24" viewBox="0 0 24 24" fill="none" xmlns="http://www.w3.org/2000/svg">
<circle cx="12" cy="11.9999" r="12" fill="#99BF34"/>
<path d="M17.7427 15.647C17.7427 15.8543 17.6966 16.0674 17.5987 16.2748C17.5008 16.4822 17.3741 16.678 17.207 16.8623C16.9248 17.1734 16.6138 17.398 16.2624 17.542C15.9168 17.686 15.5424 17.7609 15.1392 17.7609C14.5517 17.7609 13.9238 17.6226 13.2614 17.3404C12.599 17.0582 11.9366 16.678 11.28 16.1999C10.6176 15.7161 9.98975 15.1804 9.39071 14.5871C8.79743 13.9881 8.26175 13.3602 7.78367 12.7036C7.31135 12.047 6.93119 11.3903 6.65471 10.7394C6.37823 10.0828 6.23999 9.45496 6.23999 8.85592C6.23999 8.46424 6.30911 8.08984 6.44735 7.74424C6.58559 7.39288 6.80447 7.07032 7.10975 6.78232C7.47839 6.41944 7.88159 6.24088 8.30783 6.24088C8.46911 6.24088 8.63039 6.27544 8.77439 6.34456C8.92415 6.41368 9.05663 6.51736 9.16031 6.66712L10.4966 8.55064C10.6003 8.69464 10.6752 8.82712 10.727 8.95384C10.7789 9.0748 10.8077 9.19576 10.8077 9.3052C10.8077 9.44344 10.7674 9.58168 10.6867 9.71416C10.6118 9.84664 10.5024 9.98488 10.3642 10.1231L9.92639 10.5782C9.86303 10.6415 9.83423 10.7164 9.83423 10.8086C9.83423 10.8546 9.83999 10.895 9.85151 10.941C9.86879 10.9871 9.88607 11.0217 9.89759 11.0562C10.0013 11.2463 10.1798 11.494 10.4333 11.7935C10.6925 12.093 10.969 12.3983 11.2685 12.7036C11.5795 13.0089 11.879 13.2911 12.1843 13.5503C12.4838 13.8038 12.7315 13.9766 12.9274 14.0802C12.9562 14.0918 12.9907 14.109 13.031 14.1263C13.0771 14.1436 13.1232 14.1494 13.175 14.1494C13.273 14.1494 13.3478 14.1148 13.4112 14.0514L13.849 13.6194C13.993 13.4754 14.1312 13.366 14.2637 13.2969C14.3962 13.2162 14.5286 13.1759 14.6726 13.1759C14.7821 13.1759 14.8973 13.199 15.024 13.2508C15.1507 13.3026 15.2832 13.3775 15.4272 13.4754L17.3338 14.829C17.4835 14.9327 17.5872 15.0537 17.6506 15.1977C17.7082 15.3417 17.7427 15.4857 17.7427 15.647Z" stroke="white" stroke-miterlimit="10"/>
<path d="M15.7438 10.2729C15.7438 9.92733 15.4731 9.39741 15.0699 8.96541C14.7012 8.56797 14.2116 8.25693 13.7278 8.25693" stroke="white" stroke-linecap="round" stroke-linejoin="round"/>
<path d="M17.7598 10.2731C17.7598 8.04397 15.9569 6.24109 13.7278 6.24109" stroke="white" stroke-linecap="round" stroke-linejoin="round"/>
</svg>
