<svg width="26" height="28" viewBox="0 0 26 28" fill="none" xmlns="http://www.w3.org/2000/svg">
<path d="M1.5 0.374939C6 4.74994 10.375 9.12494 14.875 13.4999C15.375 13.9999 15.625 14.3749 14.875 14.9999C10.625 19.1249 6.375 23.2499 2.125 27.4999C1.375 28.2499 1 28.1249 0.5 27.2499C0.25 26.8749 0.25 26.3749 0.25 25.8749C0.25 18.2499 0.25 10.4999 0.25 2.87494C0.25 1.87494 0.625 1.12494 1.25 0.499939C1.375 0.374939 1.5 0.374939 1.5 0.374939Z" fill="#006AAE"/>
<path d="M5.75 26.7499C8.875 23.4999 12 20.2499 15.125 17.1249C16.75 15.3749 16.875 15.4999 18.625 17.1249C19.125 17.6249 19.625 17.9999 20.25 18.6249C15.25 21.3749 10.5 23.9999 5.75 26.7499Z" fill="#006AAE"/>
<path d="M5.87502 1.74994C10.625 4.37494 15.25 7.12494 20 9.74994C19 10.7499 18.125 11.6249 17.125 12.6249C16.875 12.8749 16.625 12.9999 16.375 12.6249C12.875 9.12494 9.37502 5.74994 6.00002 2.37494C5.87502 2.24994 5.75002 2.12494 5.87502 1.74994Z" fill="#006AAE"/>
<path d="M25.6251 14.2499C25.6251 14.8749 25.3751 15.4999 24.8751 15.8749C23.8751 16.4999 22.8751 16.9999 21.8751 17.6249C21.6251 17.7499 21.3751 17.6249 21.2501 17.4999C20.2501 16.6249 19.3751 15.6249 18.3751 14.7499C18.1251 14.4999 18.0001 14.2499 18.3751 13.9999C19.3751 13.1249 20.2501 12.1249 21.2501 11.2499C21.5001 10.9999 21.6251 10.8749 22.0001 11.1249C22.8751 11.6249 23.8751 12.1249 24.7501 12.7499C25.3751 12.9999 25.6251 13.6249 25.6251 14.2499Z" fill="#006AAE"/>
</svg>
