<svg width="24" height="24" viewBox="0 0 24 24" fill="none" xmlns="http://www.w3.org/2000/svg">
<circle cx="12" cy="11.9999" r="12" fill="#99BF34"/>
<path d="M12.2057 12.4029C10.5072 12.4029 9.12476 11.0205 9.12476 9.32202C9.12476 7.62349 10.5072 6.24109 12.2057 6.24109C13.9042 6.24109 15.2866 7.62349 15.2866 9.32202C15.2866 11.0205 13.9042 12.4029 12.2057 12.4029ZM12.2057 7.04481C10.9519 7.04481 9.92848 8.06821 9.92848 9.32202C9.92848 10.5758 10.9519 11.5992 12.2057 11.5992C13.4595 11.5992 14.4829 10.5758 14.4829 9.32202C14.4829 8.06821 13.4595 7.04481 12.2057 7.04481Z" fill="white"/>
<path d="M16.8073 17.7625C16.5876 17.7625 16.4054 17.5804 16.4054 17.3607C16.4054 15.5121 14.5194 14.0119 12.2047 14.0119C9.88998 14.0119 8.00392 15.5121 8.00392 17.3607C8.00392 17.5804 7.82174 17.7625 7.60206 17.7625C7.38237 17.7625 7.2002 17.5804 7.2002 17.3607C7.2002 15.0728 9.44525 13.2081 12.2047 13.2081C14.9642 13.2081 17.2092 15.0728 17.2092 17.3607C17.2092 17.5804 17.027 17.7625 16.8073 17.7625Z" fill="white"/>
</svg>
